<svg xmlns="http://www.w3.org/2000/svg" width="82.191" height="78.458" viewBox="0 0 82.191 78.458">
  <g id="_12429941861537184101" data-name="12429941861537184101" transform="translate(0 -4.753)">
    <path id="Path_24" data-name="Path 24" d="M81.362,41.933l-8.123-8.4L74.876,21.97a2.945,2.945,0,0,0-2.408-3.314L60.962,16.639,55.487,6.318a2.946,2.946,0,0,0-3.9-1.266L41.1,10.184,30.6,5.053a2.946,2.946,0,0,0-3.9,1.266l-5.475,10.32L9.723,18.656A2.945,2.945,0,0,0,7.315,21.97L8.952,33.538.829,41.933a2.946,2.946,0,0,0,0,4.1l8.122,8.4L7.315,65.993a2.946,2.946,0,0,0,2.407,3.314l11.507,2.019L26.7,81.645a2.945,2.945,0,0,0,3.9,1.266l10.5-5.13,10.5,5.13a2.944,2.944,0,0,0,3.9-1.266l5.475-10.319,11.507-2.019a2.946,2.946,0,0,0,2.407-3.314L73.239,54.425l8.123-8.4A2.945,2.945,0,0,0,81.362,41.933ZM68,51.364a2.946,2.946,0,0,0-.8,2.461L68.645,64,58.526,65.773a2.946,2.946,0,0,0-2.093,1.521l-4.815,9.074-9.23-4.511a2.945,2.945,0,0,0-2.587,0l-9.229,4.511-4.815-9.074a2.946,2.946,0,0,0-2.093-1.521L13.547,64l1.439-10.172a2.945,2.945,0,0,0-.8-2.46L7.044,43.982,14.186,36.6a2.946,2.946,0,0,0,.8-2.46L13.547,23.967l10.118-1.774a2.947,2.947,0,0,0,2.094-1.521L30.573,11.6,39.8,16.109a2.943,2.943,0,0,0,2.587,0l9.23-4.512,4.815,9.075a2.945,2.945,0,0,0,2.093,1.521l10.118,1.774L67.2,34.139A2.946,2.946,0,0,0,68,36.6l7.142,7.382Z" transform="translate(0 0)"/>
    <path id="Path_25" data-name="Path 25" d="M69.79,76.922a7.132,7.132,0,1,0-7.133-7.131A7.14,7.14,0,0,0,69.79,76.922Zm0-9.552a2.42,2.42,0,1,1-2.42,2.421A2.423,2.423,0,0,1,69.79,67.37Z" transform="translate(-38.05 -35.163)"/>
    <path id="Path_26" data-name="Path 26" d="M95.8,67.347a2.356,2.356,0,0,0-3.332,0L67.348,92.468A2.356,2.356,0,0,0,70.681,95.8L95.8,70.679A2.357,2.357,0,0,0,95.8,67.347Z" transform="translate(-40.479 -37.592)"/>
    <path id="Path_27" data-name="Path 27" d="M117.433,110.3a7.132,7.132,0,1,0,7.134,7.131A7.139,7.139,0,0,0,117.433,110.3Zm0,9.552a2.42,2.42,0,1,1,2.421-2.421A2.422,2.422,0,0,1,117.433,119.853Z" transform="translate(-66.983 -64.096)"/>
  </g>
</svg>
