<svg id="Layer_2" data-name="Layer 2" xmlns="http://www.w3.org/2000/svg" width="86" height="86" viewBox="0 0 86 86">
  <g id="eye">
    <rect id="Rectangle_82" data-name="Rectangle 82" width="86" height="86" opacity="0"/>
    <path id="Path_28" data-name="Path 28" d="M73.211,28.3C70.918,24.325,58.3,4.366,36.876,5.011,17.06,5.513,5.594,22.928,2.476,28.3a3.583,3.583,0,0,0,0,3.583c2.258,3.906,14.333,23.292,35.439,23.292h.9c19.816-.5,31.318-17.917,34.4-23.292A3.583,3.583,0,0,0,73.211,28.3ZM38.632,48.011c-15.444.358-25.513-12.864-28.667-17.917C13.549,24.325,22.9,12.536,37.234,12.178,52.607,11.784,62.712,25.042,65.9,30.094,62.21,35.864,52.965,47.653,38.632,48.011Z" transform="translate(5.156 12.906)"/>
    <path id="Path_29" data-name="Path 29" d="M21.042,8.5A12.542,12.542,0,1,0,33.583,21.042,12.542,12.542,0,0,0,21.042,8.5Zm0,17.917a5.375,5.375,0,1,1,5.375-5.375A5.375,5.375,0,0,1,21.042,26.417Z" transform="translate(21.958 21.958)"/>
  </g>
</svg>
