<svg xmlns="http://www.w3.org/2000/svg" width="111.293" height="113.205" viewBox="0 0 111.293 113.205">
  <g id="Group_6" data-name="Group 6" transform="translate(-239.851 -1370.898)">
    <path id="Path_18409" data-name="Path 18409" d="M0,19.6a4.1,4.1,0,0,1,4.455-2.727c3.359.081,6.722,0,10.081.024a3.569,3.569,0,0,1,4.06,4.039v32.45a3.556,3.556,0,0,1-4.083,4.009c-3.285,0-6.57-.088-9.851.03A4.4,4.4,0,0,1,0,54.84Z" transform="translate(239.851 1426.635)" fill="#fff"/>
    <path id="Path_18410" data-name="Path 18410" d="M82.477,38.229v-1.14c0-7.727.017-15.454-.02-23.18,0-.978.284-1.275,1.238-1.225a7.47,7.47,0,0,0,3.752-.122c.893-.521,1.157-2.091,1.749-3.173A13.955,13.955,0,0,1,101.93,1.551c7.686-.1,15.376-.085,23.065,0a7.443,7.443,0,0,1-.078,14.885c-3.515.074-7.03,0-10.548.027a5.893,5.893,0,0,0-1.82.223,3.424,3.424,0,0,0-2.277,3.417,3.518,3.518,0,0,0,2.771,3.173,3.184,3.184,0,0,0,.677.1c4.736-.034,9.5.034,14.246-.152A10.02,10.02,0,0,0,134.6,19.8q8.1-8.119,16.238-16.238a11.32,11.32,0,0,1,15.964-.511,3.447,3.447,0,0,1,.21,5.379Q154.3,21.192,141.511,33.9a14.973,14.973,0,0,1-10.785,4.4c-15.8.047-31.6.024-47.4.02-.227,0-.453-.034-.842-.064" transform="translate(182.939 1438.283)" fill="#fff"/>
    <circle id="Ellipse_747" data-name="Ellipse 747" cx="28.969" cy="28.969" r="28.969" transform="translate(269.865 1370.898)" fill="#fff"/>
    <path id="Path_18434" data-name="Path 18434" d="M1.021-4.492a13.065,13.065,0,0,1,1.627-7.057A5.914,5.914,0,0,1,8.061-14.1a5.914,5.914,0,0,1,5.413,2.551A13.065,13.065,0,0,1,15.1-4.492a13.261,13.261,0,0,1-1.627,7.1A5.893,5.893,0,0,1,8.061,5.19,5.893,5.893,0,0,1,2.648,2.612a13.261,13.261,0,0,1-1.627-7.1Zm10.467,0a17.93,17.93,0,0,0-.247-3.241,4.367,4.367,0,0,0-.988-2.148,2.794,2.794,0,0,0-2.2-.832,2.794,2.794,0,0,0-2.2.832,4.367,4.367,0,0,0-.988,2.148A17.93,17.93,0,0,0,4.62-4.492a19.737,19.737,0,0,0,.233,3.319A4.168,4.168,0,0,0,5.841.988a2.859,2.859,0,0,0,2.212.819A2.859,2.859,0,0,0,10.266.988a4.168,4.168,0,0,0,.988-2.162,19.737,19.737,0,0,0,.23-3.319Zm5.941-4.584a4.107,4.107,0,0,1,1.16-3.1,4.114,4.114,0,0,1,2.98-1.12,4.114,4.114,0,0,1,2.98,1.12,4.107,4.107,0,0,1,1.16,3.1,4.141,4.141,0,0,1-1.16,3.126,4.114,4.114,0,0,1-2.98,1.12,4.114,4.114,0,0,1-2.98-1.12,4.141,4.141,0,0,1-1.16-3.123Zm16.722-3.9L23.913,5.241H20.371L30.578-12.987Zm-12.6,1.874q-1.431,0-1.431,2.03t1.431,2.057a1.3,1.3,0,0,0,1.093-.507,2.53,2.53,0,0,0,.389-1.549q0-2.03-1.489-2.03ZM28.859,1.316A4.1,4.1,0,0,1,30.02-1.8,4.141,4.141,0,0,1,33-2.9,4.06,4.06,0,0,1,35.957-1.8,4.151,4.151,0,0,1,37.09,1.316a4.2,4.2,0,0,1-1.133,3.126A4.022,4.022,0,0,1,33,5.562a4.1,4.1,0,0,1-2.994-1.12,4.168,4.168,0,0,1-1.147-3.126Zm4.114-2.03q-1.485,0-1.485,2.03t1.485,2.057q1.458,0,1.458-2.057T32.973-.717Z" transform="translate(279.779 1404.135)" fill="#0E4597"/>
  </g>
</svg>
