<svg xmlns="http://www.w3.org/2000/svg" width="96.029" height="96.092" viewBox="0 0 96.029 96.092">
  <g id="_10999648851580817583" data-name="10999648851580817583" transform="translate(0 0.016)" opacity="0.05">
    <path id="Path_12" data-name="Path 12" d="M63.7,60.986l9.723-16.925a29.089,29.089,0,0,0,0-29.409,29.409,29.409,0,0,0-50.9,0,29.089,29.089,0,0,0,0,29.409L32.25,60.906C16,62.906,0,68.068,0,78.071,0,90.435,24.887,96.076,48.014,96.076s48.014-5.642,48.014-18.005C96.029,68.068,80.024,62.906,63.7,60.986ZM29.489,18.733A21.366,21.366,0,1,1,66.5,40.06L48.014,72.069,29.529,40.06a21.246,21.246,0,0,1-.04-21.326ZM48.014,88.074c-26.408,0-40.012-7-40.012-10,0-2.121,8.6-7.8,28.729-9.523l5.4,9.323a6.8,6.8,0,0,0,11.764,0l5.4-9.323c20.126,1.721,28.729,7.522,28.729,9.523C88.026,81.072,74.422,88.074,48.014,88.074Z" transform="translate(0 0)"/>
    <circle id="Ellipse_1" data-name="Ellipse 1" cx="8.002" cy="8.002" r="8.002" transform="translate(40.012 20.054)"/>
  </g>
</svg>
