<svg xmlns="http://www.w3.org/2000/svg" width="86.905" height="87.038" viewBox="0 0 86.905 87.038">
  <path id="_6202256991581426686" data-name="6202256991581426686" d="M84.223,10.961,44.393.1a3.331,3.331,0,0,0-1.883,0L2.681,10.961A3.621,3.621,0,0,0,0,14.582V68.895a3.621,3.621,0,0,0,2.39,3.4l39.83,14.483h0a3.186,3.186,0,0,0,2.317,0h0L84.368,72.3a3.621,3.621,0,0,0,2.535-3.4V14.582a3.621,3.621,0,0,0-2.679-3.621ZM43.452,7.34,76.04,16.392,43.452,25.444,10.864,16.392ZM7.243,29.065V22.946l32.588,8.871V78.2L7.243,66.36Zm72.417,37.3L47.073,78.2V31.817l32.588-8.871V66.4Z" transform="translate(0.001 0.037)" opacity="0.05"/>
</svg>
