<svg xmlns="http://www.w3.org/2000/svg" width="76.936" height="92.954" viewBox="0 0 76.936 92.954">
  <path id="_17676289951537184110" data-name="17676289951537184110" d="M94.9,89.072,89.239,26.08a3.336,3.336,0,0,0-3.323-3.038H74.252V17.781a17.78,17.78,0,1,0-35.559,0v5.261H27.02A3.336,3.336,0,0,0,23.7,26.08L18.018,89.32a3.336,3.336,0,0,0,3.323,3.634H91.6a3.336,3.336,0,0,0,3.336-3.336A3.4,3.4,0,0,0,94.9,89.072Zm-49.53-71.29a11.107,11.107,0,1,1,22.214,0v5.261H45.365Zm-20.374,68.5L30.07,29.715h8.622v5.966a3.336,3.336,0,0,0,6.673,0V29.715H67.58v5.966a3.336,3.336,0,0,0,6.673,0V29.715h8.614l5.079,56.567H24.991Z" transform="translate(-18.005)" opacity="0.05"/>
</svg>
