<svg id="icon-12" xmlns="http://www.w3.org/2000/svg" width="106.598" height="61.758" viewBox="0 0 106.598 61.758">
  <path id="Path_18429" data-name="Path 18429" d="M0,19.3a3.994,3.994,0,0,1,4.289-2.527c3.254.1,6.526.022,9.774.028a3.325,3.325,0,0,1,3.683,3.664V57.593A3.282,3.282,0,0,1,14.125,61.2c-3.328,0-6.657-.065-9.982.031A3.854,3.854,0,0,1,0,58.653Z" transform="translate(0 -12.119)" fill="#fff"/>
  <path id="Path_18430" data-name="Path 18430" d="M337.827,58.645a3.844,3.844,0,0,1-4.14,2.576c-3.291-.093-6.585-.019-9.88-.028a3.319,3.319,0,0,1-3.729-3.708q0-18.46,0-36.924a3.35,3.35,0,0,1,3.782-3.767c3.223,0,6.452.078,9.671-.031a4.021,4.021,0,0,1,4.292,2.527Z" transform="translate(-231.233 -12.115)" fill="#fff"/>
  <path id="Path_18431" data-name="Path 18431" d="M101.329,11.65c-5.858,3.248-8.9,7.978-7.832,14.545A13.137,13.137,0,0,0,105.435,37.52c-.559,1.293.227,2.048,1.085,2.881,4.9,4.764,9.752,9.578,14.647,14.346a1.168,1.168,0,0,1,.311,1.535,8.957,8.957,0,0,1-7.919,5.535,2.176,2.176,0,0,1-1.52-.59Q104.378,53.655,96.789,46a9.231,9.231,0,0,1-.7-.9c-.995,1.094-.932,1.939-.022,2.844,5.038,4.923,10.054,9.867,15.126,14.75a1.4,1.4,0,0,1,.246,2.1,9.28,9.28,0,0,1-13.852,2.194c-3.322-2.893-6.567-5.877-9.814-8.854a19.455,19.455,0,0,0-7.052-4.286c-.587-.2-.7-.5-.7-1.057q.022-18.059,0-36.119a1.05,1.05,0,0,1,.777-1.141c3.593-1.458,7.148-2.983,10.762-4.419a11.458,11.458,0,0,1,9.774.528" transform="translate(-57.804 -7.421)" fill="#fff"/>
  <path id="Path_18432" data-name="Path 18432" d="M179.928,42.7a13.674,13.674,0,0,0,.519-10.918,13.957,13.957,0,0,0-3.276-5.01c-2.524-2.533-5.063-5.044-7.571-7.592a.932.932,0,0,0-1.321-.221c-3.667,1.883-7.356,3.729-11.042,5.575a9.013,9.013,0,1,1-8.08-16.077q7.114-3.552,14.224-7.111A11.542,11.542,0,0,1,173.24.893c4.823,1.933,9.634,3.922,14.43,5.886.42.171.727.3.727.932q-.056,16.5,0,32.989a1.753,1.753,0,0,1-1.131,1.837,8.6,8.6,0,0,1-7.338.165" transform="translate(-103.995 0.002)" fill="#fff"/>
  <path id="Path_18433" data-name="Path 18433" d="M174.85,93.235a15.468,15.468,0,0,0,7.664-2.073c2.4-1.305,4.861-2.5,7.319-3.7a1.131,1.131,0,0,1,1.022.165c2.036,1.983,4.1,3.944,6.01,6.045a8.7,8.7,0,0,1,1.821,9.2,9.05,9.05,0,0,1-7.288,6.216,1.4,1.4,0,0,1-1.082-.311q-7.648-7.567-15.247-15.188a2.415,2.415,0,0,1-.221-.367" transform="translate(-126.312 -63.142)" fill="#fff"/>
  <rect id="Rectangle_4405" data-name="Rectangle 4405" width="106.598" height="61.758" fill="none"/>
</svg>
