<svg xmlns="http://www.w3.org/2000/svg" width="85" height="68" viewBox="0 0 85 68">
  <g id="_115592648816344783054478" data-name="115592648816344783054478" transform="translate(-2 -6)">
    <path id="Path_14" data-name="Path 14" d="M66.222,21.846V11.667A5.667,5.667,0,0,0,60.556,6H57.921a5.636,5.636,0,0,0-3.143.944l-6.532,4.344a35.779,35.779,0,0,1-19.907,6.044H11.444A9.456,9.456,0,0,0,2,26.778V41.889a9.456,9.456,0,0,0,9.444,9.444h3.778v17A5.667,5.667,0,0,0,20.889,74h1.889a5.667,5.667,0,0,0,5.667-5.667v-17a35.775,35.775,0,0,1,19.8,6.024l6.53,4.344a5.648,5.648,0,0,0,3.145.944h2.635a5.667,5.667,0,0,0,5.667-5.667V46.821a14.1,14.1,0,0,0,0-24.975ZM5.778,41.889V26.778a5.667,5.667,0,0,1,5.667-5.667H19V47.556H11.444a5.667,5.667,0,0,1-5.667-5.667Zm17,28.333H20.889A1.889,1.889,0,0,1,19,68.333v-17h5.667v17a1.889,1.889,0,0,1-1.889,1.889ZM62.444,57a1.889,1.889,0,0,1-1.889,1.889H57.921a1.878,1.878,0,0,1-1.046-.317l-6.532-4.344a39.549,39.549,0,0,0-22-6.672H22.778V21.111h5.561a39.548,39.548,0,0,0,22-6.662l6.534-4.356a1.889,1.889,0,0,1,1.045-.315h2.635a1.889,1.889,0,0,1,1.889,1.889Zm3.778-14.652V26.319a10.389,10.389,0,0,1,0,16.029Z" transform="translate(0)"/>
    <path id="Path_15" data-name="Path 15" d="M49.556,20H43.889a1.889,1.889,0,0,0,0,3.778h5.667a1.889,1.889,0,0,0,0-3.778Z" transform="translate(35.556 12.444)"/>
    <path id="Path_16" data-name="Path 16" d="M42.489,19.864a1.874,1.874,0,0,0,.944-.253l4.911-2.833a1.889,1.889,0,1,0-1.889-3.272l-4.911,2.833a1.889,1.889,0,0,0,.944,3.525Z" transform="translate(34.311 6.442)"/>
    <path id="Path_17" data-name="Path 17" d="M48.33,28.333,43.419,25.5a1.889,1.889,0,0,0-1.889,3.272l4.911,2.833a1.889,1.889,0,1,0,1.889-3.272Z" transform="translate(34.308 17.114)"/>
  </g>
</svg>
