<svg xmlns="http://www.w3.org/2000/svg" width="70.776" height="70.776" viewBox="0 0 70.776 70.776">
  <path id="path7" d="M36.388,2A35.388,35.388,0,1,0,71.776,37.388,35.429,35.429,0,0,0,36.388,2ZM15,62.18A26.658,26.658,0,0,1,35.708,51.773c.126.005.246.037.372.037h.12c.115,0,.22-.031.335-.037A26.621,26.621,0,0,1,57.423,62.479,32.652,32.652,0,0,1,15,62.18ZM36.1,49.13c-.131,0-.256.021-.387.026a11.718,11.718,0,1,1,.832.005C36.393,49.156,36.247,49.13,36.1,49.13Zm23.269,11.59a29.273,29.273,0,0,0-16.3-10.737,14.384,14.384,0,1,0-13.866-.01A29.314,29.314,0,0,0,13.072,60.412a32.792,32.792,0,1,1,46.293.309Z" transform="translate(-1 -2)" fill="#231f20"/>
</svg>
