<svg id="Cancel" xmlns="http://www.w3.org/2000/svg" width="80.356" height="80.356" viewBox="0 0 80.356 80.356">
  <path id="Path_20" data-name="Path 20" d="M40.178,0A40.178,40.178,0,1,0,80.356,40.178,40.177,40.177,0,0,0,40.178,0Zm0,75.334A35.156,35.156,0,1,1,75.334,40.178,35.156,35.156,0,0,1,40.178,75.334Z" fill="#121313" fill-rule="evenodd"/>
  <path id="Path_21" data-name="Path 21" d="M43.509,39.853,30.281,26.622,43.434,13.577a2.49,2.49,0,0,0,0-3.551,2.556,2.556,0,0,0-3.586,0L26.712,23.054,13.381,9.72a2.539,2.539,0,0,0-3.586,3.6L23.106,26.63,9.72,39.906a2.5,2.5,0,0,0,0,3.551,2.554,2.554,0,0,0,3.588,0L26.677,30.2,39.926,43.447a2.537,2.537,0,1,0,3.583-3.593Z" transform="translate(13.566 13.561)" fill="#121313" fill-rule="evenodd"/>
</svg>
