<svg xmlns="http://www.w3.org/2000/svg" width="20" height="27.619" viewBox="0 0 20 27.619">
  <g id="_98133514216366499815385" data-name="98133514216366499815385" transform="translate(-11 -3)">
    <path id="Path_69" data-name="Path 69" d="M20.47,21.072a.476.476,0,0,0,.319.124h.067a.477.477,0,0,0,.338-.219l1.5-2.381a.476.476,0,0,0-.8-.51l-1.2,1.9-.738-.681a.479.479,0,0,0-.643.71Z" transform="translate(-4.271 -7.787)" fill="#0E4597"/>
    <path id="Path_70" data-name="Path 70" d="M20.471,33.4a.5.5,0,0,0,.319.124h.067a.476.476,0,0,0,.338-.219l1.5-2.381a.475.475,0,0,0-.8-.5l-1.2,1.9-.738-.676a.477.477,0,0,0-.643.7Z" transform="translate(-4.271 -14.245)" fill="#0E4597"/>
    <path id="Path_71" data-name="Path 71" d="M20.471,45.207a.476.476,0,0,0,.319.124h.067a.476.476,0,0,0,.338-.214l1.5-2.381a.476.476,0,1,0-.8-.51l-1.2,1.9-.738-.7a.477.477,0,0,0-.643.7Z" transform="translate(-4.271 -20.431)" fill="#0E4597"/>
    <path id="Path_72" data-name="Path 72" d="M28.143,5.381H23.381a2.381,2.381,0,0,0-4.762,0H13.857A2.857,2.857,0,0,0,11,8.238V27.762a2.857,2.857,0,0,0,2.857,2.857H28.143A2.857,2.857,0,0,0,31,27.762V8.238a2.857,2.857,0,0,0-2.857-2.857ZM16.51,8.152A1.329,1.329,0,0,0,17.8,9.19h6.4a1.329,1.329,0,0,0,1.29-1.038h2.1a.557.557,0,0,1,.557.562V27.286a.557.557,0,0,1-.557.562H14.414a.557.557,0,0,1-.557-.562V8.714a.557.557,0,0,1,.557-.562Zm2.648-1.819a.236.236,0,0,0,.062,0,.157.157,0,0,0,.067,0h.029L19.4,6.29a.372.372,0,0,0,.071-.048.29.29,0,0,0,.057-.071l.043-.1a.6.6,0,0,0,.029-.086.558.558,0,0,0,0-.1V5.857a.236.236,0,0,0,0-.062.157.157,0,0,0,0-.067,1.31,1.31,0,0,1-.029-.348,1.429,1.429,0,0,1,2.857,0,1.309,1.309,0,0,1-.043.348.157.157,0,0,0,0,.067.236.236,0,0,0,0,.062v.029a.558.558,0,0,0,0,.1.6.6,0,0,0,.029.086l.052.071a.29.29,0,0,0,.057.071.372.372,0,0,0,.071.048.362.362,0,0,0,.086.043h.029a.4.4,0,0,0,.129,0h1.733V7.833A.372.372,0,0,1,24.2,8.2H17.8a.371.371,0,0,1-.371-.371v-1.5Zm10.89,21.429a1.9,1.9,0,0,1-1.9,1.9H13.857a1.9,1.9,0,0,1-1.9-1.9V8.238a1.9,1.9,0,0,1,1.9-1.9h2.619V7.2H14.414A1.514,1.514,0,0,0,12.9,8.714V27.286a1.514,1.514,0,0,0,1.51,1.514H27.586a1.514,1.514,0,0,0,1.51-1.514V8.714A1.514,1.514,0,0,0,27.586,7.2H25.524V6.333h2.619a1.9,1.9,0,0,1,1.9,1.9Z" fill="#0E4597"/>
    <path id="Path_73" data-name="Path 73" d="M28.476,33.952h7.143a.476.476,0,0,0,0-.952H28.476a.476.476,0,0,0,0,.952Z" transform="translate(-8.905 -15.714)" fill="#0E4597"/>
    <path id="Path_74" data-name="Path 74" d="M28.476,21.952h7.143a.476.476,0,0,0,0-.952H28.476a.476.476,0,0,0,0,.952Z" transform="translate(-8.905 -9.429)" fill="#0E4597"/>
    <path id="Path_75" data-name="Path 75" d="M39.81,25H36.476a.476.476,0,0,0,0,.952H39.81a.476.476,0,0,0,0-.952Z" transform="translate(-13.095 -11.524)" fill="#0E4597"/>
    <path id="Path_76" data-name="Path 76" d="M39.81,37H36.476a.476.476,0,0,0,0,.952H39.81a.476.476,0,0,0,0-.952Z" transform="translate(-13.095 -17.81)" fill="#0E4597"/>
    <path id="Path_77" data-name="Path 77" d="M39.81,49H36.476a.476.476,0,0,0,0,.952H39.81a.476.476,0,0,0,0-.952Z" transform="translate(-13.095 -24.095)" fill="#0E4597"/>
    <path id="Path_78" data-name="Path 78" d="M28.476,45.952h7.143a.476.476,0,0,0,0-.952H28.476a.476.476,0,0,0,0,.952Z" transform="translate(-8.905 -22)" fill="#0E4597"/>
  </g>
</svg>
