<svg xmlns="http://www.w3.org/2000/svg" width="36.994" height="36.994" viewBox="0 0 36.994 36.994">
  <path id="_13214160841579149613" data-name="13214160841579149613" d="M36.994,22.286,26.156,14.248v6.488l-8.67-6.5V21.82h-4.55L11.054,8.528a5.427,5.427,0,0,0,4.191-5.277V0H11.994A5.414,5.414,0,0,0,7.648,2.186,5.517,5.517,0,0,0,3.251,0H0V3.251A5.427,5.427,0,0,0,4.191,8.528L2.31,21.82H0V36.993H36.994ZM8.742,5.419a3.255,3.255,0,0,1,3.251-3.251h1.084V3.251A3.255,3.255,0,0,1,9.826,6.5H8.742Zm2,16.4H4.5l1.247-8.815H9.5Zm-2-13.15h.143l.307,2.168H6.053L6.36,8.67ZM2.167,3.251V2.167H3.251A3.332,3.332,0,0,1,6.575,5.419V6.5H5.419A3.255,3.255,0,0,1,2.167,3.251ZM13.15,34.826H6.5v-6.5H13.15Zm4.335,0H15.318v-8.67H4.335v8.67H2.167V23.988H17.485Zm17.341-4.335H32.658V28.323h2.168Zm0-4.335H21.82v6.5H34.826v2.168H19.653V18.569l8.67,6.5V18.554l6.5,4.823Zm-4.335,2.168v2.168H28.323V28.323Zm-4.335,0v2.168H23.988V28.323Zm0,0" transform="translate(0 0)" fill="#fff"/>
</svg>
