<svg id="_15793660381605806466" data-name="15793660381605806466" xmlns="http://www.w3.org/2000/svg" width="26.011" height="28.717" viewBox="0 0 26.011 28.717">
  <path id="Path_24" data-name="Path 24" d="M10.534,6.718c-2.364,0-3.09.023-5.478.023a3.946,3.946,0,0,0-.772.07,3.082,3.082,0,0,0-.7.211,3.532,3.532,0,0,0-.655.351,3.834,3.834,0,0,0-.585.492,3.834,3.834,0,0,0-.492.585,3.532,3.532,0,0,0-.351.655,4,4,0,0,0-.211.7,4.31,4.31,0,0,0-.07.772v7.8a3.946,3.946,0,0,0,.07.772,3.081,3.081,0,0,0,.211.7,3.532,3.532,0,0,0,.351.655,3.834,3.834,0,0,0,.492.585h0a4,4,0,0,0,.609.492,3.532,3.532,0,0,0,.655.351,4,4,0,0,0,.7.211,4.31,4.31,0,0,0,.772.07h2.95a.472.472,0,0,1,.257.07,1.287,1.287,0,0,1,.211.164h0c.234.3.468.609.726.89a9.02,9.02,0,0,0,.819.819,9.387,9.387,0,0,0,.89.749c.3.234.632.468.936.679a9.909,9.909,0,0,0,.983.585c.328.187.679.351,1.03.515a.1.1,0,0,0,.117,0,.126.126,0,0,0,.047-.187c-.07-.117-.117-.211-.187-.328-.047-.117-.117-.211-.164-.328h0c-.094-.234-.187-.445-.281-.679a6.617,6.617,0,0,1-.257-.726c-.07-.234-.164-.468-.234-.7s-.14-.468-.211-.726a.648.648,0,0,1-.023-.211.673.673,0,0,1,.164-.421h0a.586.586,0,0,1,.421-.187h3.441a3.946,3.946,0,0,0,.772-.07,4,4,0,0,0,.7-.211h0a3.342,3.342,0,0,0,.632-.351,3.094,3.094,0,0,0,.609-.515h0a3.834,3.834,0,0,0,.492-.585,3.532,3.532,0,0,0,.351-.655,4,4,0,0,0,.211-.7,4.31,4.31,0,0,0,.07-.772V16.737A.631.631,0,0,1,21.77,16.5v1.826a4.738,4.738,0,0,1-.094,1.007,7.426,7.426,0,0,1-.281.96,4.445,4.445,0,0,1-.468.866,4.1,4.1,0,0,1-.655.772,4.991,4.991,0,0,1-.772.655,7.574,7.574,0,0,1-.843.468h0a7.111,7.111,0,0,1-.936.281,4.738,4.738,0,0,1-1.007.094H14.233a.133.133,0,0,0-.094.164h0c.047.14.094.3.14.468h0c.07.211.164.445.257.655s.164.421.257.609v.023c.094.211.187.4.3.609.117.187.257.4.4.585s.3.375.492.585h0a4.679,4.679,0,0,0,.609.562.726.726,0,0,1,.211.421.7.7,0,0,1-.14.421.434.434,0,0,1-.281.164.771.771,0,0,1-.328,0c-.445-.117-.89-.257-1.311-.4a11.393,11.393,0,0,1-1.241-.492c-.4-.164-.8-.375-1.17-.562-.375-.211-.749-.421-1.1-.655h0c-.351-.234-.7-.468-1.03-.726s-.655-.538-.96-.819h0a7.821,7.821,0,0,1-.749-.772c-.234-.257-.492-.538-.7-.819a.129.129,0,0,0-.117-.07H5.056a4.738,4.738,0,0,1-1.007-.094,6.186,6.186,0,0,1-.936-.281h0a4.445,4.445,0,0,1-.866-.468,5.053,5.053,0,0,1-.772-.632,6.392,6.392,0,0,1-.655-.772,4.445,4.445,0,0,1-.468-.866,6.187,6.187,0,0,1-.281-.936,5.951,5.951,0,0,1-.07-.96V10.534A4.738,4.738,0,0,1,.094,9.527a6.187,6.187,0,0,1,.281-.936,4.445,4.445,0,0,1,.468-.866A4.1,4.1,0,0,1,1.5,6.952,6.392,6.392,0,0,1,2.271,6.3a7.575,7.575,0,0,1,.843-.468h0a6.481,6.481,0,0,1,.96-.281A4.738,4.738,0,0,1,5.08,5.454h5.735a.655.655,0,0,1-.281,1.264ZM13.6,7.936a1.738,1.738,0,0,0-.117.866l.07.421c.047.14.094.3.14.445l.211.421a1.938,1.938,0,0,0,.257.351,1.617,1.617,0,0,0,.8.538c.538.164,1.475-.3,1.966-.468h0a.381.381,0,0,1,.281.023.459.459,0,0,1,.211.211c0,.023,0,.023.023.047.023.094.07.187.094.281a17.753,17.753,0,0,0,.7,1.92c.023.047.047.117.07.164v.023a4.953,4.953,0,0,0,.257.492,1.723,1.723,0,0,0,.257.375.289.289,0,0,0,.187.094.549.549,0,0,0,.3-.164,1.412,1.412,0,0,1,.187-.187h0l.211-.211a7.971,7.971,0,0,0,.772-.772l-.07-.023c-.8-.257-.749-.679-.7-1.053h0a.66.66,0,0,0,0-.3h0c0-.023-.023,0-.07-.047-.023-.023-.047-.023-.07-.047a1.05,1.05,0,0,1-.257-.3,1.37,1.37,0,0,1-.094-.866,2.529,2.529,0,0,1,.117-.492h0a.377.377,0,0,1,.094-.164.471.471,0,0,1,.187-.094h0a5.049,5.049,0,0,1,3.277.211c.117.047.257.094.375.14a8.234,8.234,0,0,1-.96-1.194A13.41,13.41,0,0,1,21.044,6.3a14.743,14.743,0,0,1-.866-2.388,10.553,10.553,0,0,1-.3-1.545,11.244,11.244,0,0,1-1.545,2.083c-.655.609-4.471,2.9-4.729,3.488Zm9.785-1.8a2.364,2.364,0,0,1-.234,1.077,1.7,1.7,0,0,1-.4.585A9.429,9.429,0,0,0,23.76,9.083,5.448,5.448,0,0,0,24.837,10h.07a.086.086,0,0,0,.07-.023.082.082,0,0,0,.047-.023.534.534,0,0,0,.14-.281,1.363,1.363,0,0,0,.07-.445,6.343,6.343,0,0,0-.257-1.849,16.462,16.462,0,0,0-.913-2.435A17.051,17.051,0,0,0,22.8,2.692,8.045,8.045,0,0,0,21.536,1.17a2.076,2.076,0,0,0-.421-.3.567.567,0,0,0-.3-.094h-.023a.323.323,0,0,0-.07.094h0a3.438,3.438,0,0,0-.047,1.592,11.844,11.844,0,0,0,.585,2.247.581.581,0,0,1,.211-.023,2.18,2.18,0,0,1,.913.117,1.493,1.493,0,0,1,.843.679,2.049,2.049,0,0,1,.164.655Zm1.428,4.658H24.72a.141.141,0,0,1-.094-.023l-.117-.023c-.281-.023-.585-.094-.89-.14H23.6a4.946,4.946,0,0,1-.89-.281,4.056,4.056,0,0,0-2.692-.257.515.515,0,0,0-.023.187.785.785,0,0,0,0,.234c0,.047.023.094.023.14a.082.082,0,0,0,.023.047l.023.023a.81.81,0,0,1,.351.4,1.176,1.176,0,0,1,.047.492c-.023.164-.023.328.164.4h0a.852.852,0,0,1,.609.468c.023.023.023.07.047.094h0v.094h0c-.047.445-.7,1.077-1.077,1.428l-.187.187-.023.023-.14.14v.094a1.248,1.248,0,0,1-.866.421,1.024,1.024,0,0,1-.726-.351,2.915,2.915,0,0,1-.375-.515c-.094-.187-.187-.375-.281-.585-.023-.047-.047-.117-.07-.164a15.09,15.09,0,0,1-.7-1.92,2.941,2.941,0,0,1-2.083.351,2.7,2.7,0,0,1-1.147-.772h0a3.345,3.345,0,0,1-.328-.468A3.524,3.524,0,0,1,13.015,10a4.9,4.9,0,0,1-.187-.538,2.35,2.35,0,0,1-.094-.562A2.581,2.581,0,0,1,12.9,7.608c.492-1.077,3.722-2.481,4.986-3.886a12.6,12.6,0,0,0,1.685-2.5V1.194A7.94,7.94,0,0,1,20.108.3l.14-.14a.991.991,0,0,1,.164-.117A.551.551,0,0,0,20.6,0h.211A2.014,2.014,0,0,1,21.4.164,2.38,2.38,0,0,1,22,.585a9.38,9.38,0,0,1,1.4,1.639,16.337,16.337,0,0,1,1.334,2.364,17.765,17.765,0,0,1,.983,2.6,6.969,6.969,0,0,1,.281,2.06h0a2.9,2.9,0,0,1-.14.679,1.53,1.53,0,0,1-.3.538l-.023.023-.023.047a1.746,1.746,0,0,1-.281.164h0a.61.61,0,0,1-.257.07h-.094l-.07.023ZM15.38,18.75a.562.562,0,1,0,0-1.124l-6.016-.094-1.147-.07a.575.575,0,0,0-.07,1.147l1.147.07c.023-.023,5.571.047,6.086.07Zm-1.8-3.558a.562.562,0,1,0,0-1.124H5.454a.562.562,0,0,0,0,1.124ZM11.049,11.8a.562.562,0,0,0,0-1.124H5.454a.562.562,0,0,0,0,1.124Z" transform="translate(0)" fill="#0E4597"/>
</svg>
