<svg xmlns="http://www.w3.org/2000/svg" width="37.155" height="28" viewBox="0 0 37.155 28">
  <g id="_820169231582962155" data-name="820169231582962155" transform="translate(-1.711 -17.059)">
    <path id="Path_84" data-name="Path 84" d="M70.461,67.217h6.392a.685.685,0,0,1,.685.685v3.827a.685.685,0,0,1-.685.685H70.461a.685.685,0,0,1-.685-.685V67.9a.685.685,0,0,1,.685-.685Z" transform="translate(-47.765 -35.199)" fill="#fff"/>
    <path id="Path_85" data-name="Path 85" d="M42.085,58.128c-.147,0-.295-.006-.441-.019v3.708h.006v9.374a1.42,1.42,0,0,0,.012.168H27.92c-.006-1.286,0-9.4-.006-10.693l-6.906.085V71.359H17.581a1.417,1.417,0,0,0,.012-.168V61.818H17.6V58.11c-.146.012-.293.019-.441.019a5.46,5.46,0,0,1-2.126-.43l-.022,15.879h29.2l0-15.878A5.469,5.469,0,0,1,42.085,58.128Z" transform="translate(-9.334 -28.519)" fill="#fff"/>
    <path id="Path_86" data-name="Path 86" d="M38.848,25.483l-2.8-8.424H4.526l-2.8,8.424s-.04,0,0,0a5.124,5.124,0,0,1,3.378,1.371,3.763,3.763,0,0,0,.7.55,3.846,3.846,0,0,0,4.738-.55,4.968,4.968,0,0,1,2.911-1.373H14.58a5.157,5.157,0,0,1,2.959,1.373,3.925,3.925,0,0,0,5.5,0A5.157,5.157,0,0,1,26,25.483h1.126a4.968,4.968,0,0,1,2.911,1.373,3.846,3.846,0,0,0,4.738.55,3.763,3.763,0,0,0,.7-.55,5.124,5.124,0,0,1,3.378-1.371C38.888,25.483,38.848,25.483,38.848,25.483Z" transform="translate(0 0)" fill="#fff"/>
  </g>
</svg>
