<?xml version="1.0" encoding="iso-8859-1"?>
<!-- Generator: Adobe Illustrator 19.0.0, SVG Export Plug-In . SVG Version: 6.00 Build 0)  -->
<svg version="1.1" id="Layer_1" xmlns="http://www.w3.org/2000/svg" xmlns:xlink="http://www.w3.org/1999/xlink" x="0px" y="0px"
	 viewBox="0 0 512 512" style="enable-background:new 0 0 512 512;" xml:space="preserve" fill="#0E4597" width="24px" height="24px">
<g>
	<g>
		<polygon points="357.871,391.592 287.48,381.364 256,317.577 224.52,381.364 154.129,391.592 205.064,441.242 193.04,511.349 
			256,478.249 318.96,511.349 306.936,441.242 		"/>
	</g>
</g>
<g>
	<g>
		<polygon points="512,346.347 451.058,337.491 423.805,282.269 396.55,337.491 335.608,346.347 379.706,389.332 369.296,450.028 
			423.805,421.372 478.313,450.028 467.902,389.332 		"/>
	</g>
</g>
<g>
	<g>
		<polygon points="176.392,346.347 115.45,337.491 88.195,282.269 60.942,337.491 0,346.347 44.098,389.332 33.688,450.028 
			88.195,421.372 142.704,450.028 132.294,389.332 		"/>
	</g>
</g>
<g>
	<g>
		<path d="M308.507,182.256c8.547-11.146,13.643-25.07,13.643-40.17c0-36.476-29.675-66.15-66.15-66.15s-66.15,29.674-66.15,66.15
			c0,15.1,5.096,29.024,13.644,40.17c-26.469,9.845-45.379,35.362-45.379,65.219v59.184h195.771v-59.184
			C353.886,217.619,334.976,192.102,308.507,182.256z"/>
	</g>
</g>
<g>
	<g>
		<rect x="240.839" y="0.651" width="30.321" height="50.019"/>
	</g>
</g>
<g>
	<g>
		<rect x="158.511" y="34.748" transform="matrix(0.7071 -0.7071 0.7071 0.7071 8.6121 140.3069)" width="30.321" height="50.019"/>
	</g>
</g>
<g>
	<g>
		<rect x="114.562" y="126.923" width="50.019" height="30.321"/>
	</g>
</g>
<g>
	<g>
		<rect x="347.416" y="126.923" width="50.019" height="30.321"/>
	</g>
</g>
<g>
	<g>
		
			<rect x="313.313" y="44.603" transform="matrix(0.7071 -0.7071 0.7071 0.7071 56.8332 256.7344)" width="50.019" height="30.321"/>
	</g>
</g>
</svg>
