<?xml version="1.0" encoding="iso-8859-1"?>
<!-- Generator: Adobe Illustrator 16.0.0, SVG Export Plug-In . SVG Version: 6.00 Build 0)  -->
<!DOCTYPE svg PUBLIC "-//W3C//DTD SVG 1.1//EN" "http://www.w3.org/Graphics/SVG/1.1/DTD/svg11.dtd">
<svg version="1.1" id="Capa_1" xmlns="http://www.w3.org/2000/svg" xmlns:xlink="http://www.w3.org/1999/xlink" x="0px" y="0px"
	  width="24px" height="24px" fill="#0E4597" viewBox="0 0 168.412 168.412" style="enable-background:new 0 0 168.412 168.412;"
	 xml:space="preserve">
<g>
	<g>
		<path d="M160.591,70.337l-5.198-3.455c-0.974-0.657-1.476-2.528-0.952-3.587l2.759-5.581c2.648-5.374,2.626-11.105-0.065-15.779
			c-2.703-4.673-7.671-7.576-13.624-7.951l-6.219-0.405c-1.171-0.077-2.55-1.456-2.625-2.632l-0.405-6.197
			C133.669,15.522,127.235,9.07,118.6,9.07c-2.721,0-5.429,0.663-8.055,1.962l-5.593,2.769c-0.941,0.46-2.998-0.085-3.585-0.957
			l-3.456-5.191c-3.159-4.763-8.147-7.497-13.689-7.497c-5.535,0-10.527,2.733-13.693,7.497l-3.464,5.196
			c-0.572,0.867-2.685,1.396-3.582,0.958L57.9,11.049c-2.636-1.305-5.346-1.979-8.068-1.979c-8.624,0-15.065,6.447-15.665,15.681
			l-0.397,6.213c-0.084,1.16-1.45,2.556-2.61,2.622l-6.238,0.399c-5.967,0.375-10.93,3.277-13.632,7.951
			c-2.696,4.673-2.729,10.405-0.072,15.768l2.755,5.592c0.522,1.055,0.025,2.925-0.953,3.587l-5.187,3.455
			C2.857,73.651,0,78.636,0,84.031c0,5.407,2.857,10.391,7.833,13.701l5.194,3.459c0.981,0.657,1.48,2.53,0.958,3.585l-2.762,5.591
			c-2.657,5.358-2.624,11.104,0.071,15.776c2.704,4.673,7.672,7.568,13.639,7.945l6.233,0.394c1.17,0.066,2.541,1.445,2.621,2.616
			l0.399,6.222c0.598,9.221,7.037,15.666,15.661,15.666c2.71,0,5.423-0.654,8.063-1.965l5.557-2.746
			c0.959-0.481,3.026,0.093,3.602,0.946l3.465,5.198c3.299,4.98,8.297,7.836,13.688,7.836c5.39,0,10.389-2.855,13.693-7.824
			l3.464-5.199c0.575-0.854,2.687-1.411,3.584-0.957l5.582,2.758c2.639,1.308,5.346,1.976,8.065,1.976
			c8.629,0,15.059-6.441,15.66-15.678l0.405-6.211c0.079-1.171,1.452-2.559,2.615-2.627l6.206-0.394
			c5.966-0.378,10.934-3.272,13.637-7.945c2.691-4.672,2.724-10.418,0.07-15.775l-2.753-5.593c-0.524-1.056-0.021-2.927,0.952-3.584
			l5.177-3.458c4.974-3.315,7.831-8.296,7.831-13.7C168.412,78.646,165.562,73.651,160.591,70.337z M159.105,95.522l-5.178,3.452
			c-2.102,1.401-2.988,4.733-1.872,6.994l2.764,5.587c2.251,4.541,2.251,9.378,0,13.258c-2.236,3.88-6.419,6.299-11.48,6.616
			l-6.216,0.388c-2.501,0.182-4.939,2.622-5.104,5.134l-0.406,6.211c-0.504,7.765-5.855,13.176-13.002,13.176
			c-2.304,0-4.618-0.579-6.884-1.695l-5.604-2.775c-0.624-0.301-1.324-0.437-2.101-0.437c-1.652,0-3.791,0.71-4.87,2.319
			l-3.459,5.193c-2.811,4.225-6.993,6.644-11.477,6.644c-4.482,0-8.663-2.419-11.475-6.644l-3.469-5.193
			c-0.936-1.39-2.881-2.319-4.865-2.319c-0.777,0-1.489,0.136-2.124,0.442l-5.576,2.77c-2.257,1.116-4.578,1.687-6.877,1.687
			c-7.146,0-12.499-5.412-13.001-13.167l-0.397-6.223c-0.165-2.512-2.594-4.94-5.112-5.122l-6.234-0.388
			c-5.056-0.317-9.242-2.725-11.488-6.616c-2.246-3.88-2.241-8.728,0-13.258l2.769-5.587c1.107-2.261,0.229-5.593-1.867-6.994
			l-5.195-3.463c-4.225-2.791-6.646-6.982-6.646-11.475c0-4.482,2.421-8.667,6.646-11.48l5.189-3.456
			c2.097-1.401,2.979-4.73,1.866-6.987l-2.758-5.587c-2.241-4.539-2.245-9.382,0-13.259c2.242-3.882,6.421-6.298,11.484-6.61
			l6.246-0.399c2.507-0.167,4.93-2.615,5.094-5.127l0.403-6.214c0.502-7.759,5.855-13.174,13.001-13.174
			c2.306,0,4.62,0.572,6.887,1.699l5.603,2.774c2.171,1.023,5.673,0.043,6.962-1.883l3.464-5.195
			c2.668-4.005,6.855-6.31,11.475-6.31c4.624,0,8.812,2.304,11.472,6.31l3.459,5.182c1.304,1.957,4.825,2.96,6.981,1.877l5.604-2.76
			c2.255-1.127,4.565-1.694,6.867-1.694c7.152,0,12.504,5.415,13.008,13.174l0.406,6.203c0.151,2.517,2.583,4.955,5.104,5.127
			l6.221,0.411c5.057,0.312,9.239,2.722,11.476,6.61c2.251,3.877,2.238,8.725-0.005,13.264l-2.764,5.582
			c-1.111,2.257-0.229,5.586,1.867,6.999l5.197,3.462c4.202,2.795,6.632,6.981,6.632,11.466
			C165.747,88.529,163.328,92.721,159.105,95.522z"/>
		<path d="M72.316,70.573h-0.198c-0.446,2.881-1.086,7.362-1.535,9.857l-1.601,8.971h6.146l-1.407-9.028
			C73.272,77.741,72.701,73.454,72.316,70.573z"/>
		<path d="M155.404,78.116l-5.174-3.459c-4.894-3.255-6.766-10.232-4.161-15.495l2.76-5.594c2.605-5.264-0.062-9.885-5.92-10.265
			l-6.206-0.405c-5.854-0.369-10.977-5.485-11.345-11.34l-0.403-6.214c-0.378-5.855-4.998-8.522-10.267-5.923l-5.588,2.752
			c-5.264,2.605-12.234,0.739-15.497-4.148l-3.456-5.181c-3.263-4.893-8.591-4.893-11.848,0l-3.462,5.188
			c-3.261,4.892-10.226,6.757-15.493,4.147l-5.594-2.757c-5.267-2.605-9.884,0.068-10.26,5.923l-0.402,6.225
			c-0.38,5.861-5.486,10.972-11.346,11.341l-6.232,0.394c-5.86,0.38-8.521,5.001-5.923,10.265l2.764,5.59
			c2.604,5.261,0.733,12.244-4.151,15.499l-5.196,3.459c-4.886,3.25-4.886,8.586,0,11.836l5.201,3.469
			c4.884,3.251,6.759,10.228,4.15,15.497l-2.769,5.594c-2.598,5.263,0.068,9.881,5.923,10.264l6.245,0.383
			c5.855,0.384,10.965,5.495,11.339,11.35l0.397,6.216c0.38,5.86,4.993,8.525,10.265,5.921l5.572-2.747
			c5.267-2.609,12.243-0.742,15.5,4.147l3.466,5.193c3.262,4.892,8.59,4.892,11.848,0l3.461-5.193
			c3.263-4.89,10.233-6.757,15.497-4.147l5.593,2.76c5.264,2.603,9.884-0.065,10.262-5.92l0.403-6.229
			c0.377-5.854,5.49-10.966,11.345-11.35l6.21-0.383c5.854-0.383,8.521-5.001,5.926-10.264l-2.77-5.594
			c-2.604-5.265-0.732-12.246,4.147-15.497l5.188-3.469C160.288,86.702,160.288,81.366,155.404,78.116z M42.148,106.177
			c-3.458,0-6.854-0.898-8.26-1.735l1.214-7.233c1.732,0.963,4.673,1.668,7.106,1.668c3.972,0,5.895-2.051,5.895-4.869
			c0-3.147-1.917-4.674-5.57-7.037c-5.893-3.593-8.136-8.137-8.136-12.044c0-6.914,4.606-12.684,13.639-12.684
			c2.812,0,5.507,0.772,6.791,1.545l-1.344,7.234c-1.223-0.774-3.078-1.48-5.507-1.48c-3.586,0-5.318,2.181-5.318,4.484
			c0,2.566,1.283,3.909,5.955,6.728c5.699,3.458,7.817,7.808,7.817,12.355C56.424,100.985,50.592,106.177,42.148,106.177z
			 M77.762,105.787l-1.86-9.859h-7.751l-1.921,9.859h-8.137l9.346-43.154h10.052l8.39,43.154H77.762z M110.118,105.787H90.643
			V62.633h8.395v36.051h11.08V105.787z M134.523,105.787h-19.535V62.633h18.77v7.308h-10.375v9.923h9.86v6.975h-9.86v11.66h11.141
			V105.787z"/>
	</g>
</g>
</svg>
