<?xml version="1.0" encoding="iso-8859-1"?>
<!-- Generator: Adobe Illustrator 19.1.0, SVG Export Plug-In . SVG Version: 6.00 Build 0)  -->
<svg version="1.1" id="Capa_1" xmlns="http://www.w3.org/2000/svg" xmlns:xlink="http://www.w3.org/1999/xlink" x="0px" y="0px"
	 viewBox="0 0 482.2 482.2" style="enable-background:new 0 0 482.2 482.2;" xml:space="preserve" fill="#0E4597" width="24px" height="24px">
<g>
	<path id="XMLID_2040_" d="M461.75,205.6l-31-0.1c-4.8-25.5-14.8-50.2-29.9-72.5l22.1-22c8-7.9,8-20.8,0.1-28.8l-22.2-22.3
		c-7.9-8-20.8-8-28.8-0.1l-22.1,22c-22.2-15.2-46.8-25.3-72.3-30.3l0.1-31c0-11.2-9.1-20.4-20.3-20.4L225.95,0
		c-11.2,0-20.4,9.1-20.4,20.3l-0.1,30.9c-25.6,4.7-50.4,14.6-72.8,29.7l-21.6-21.7c-7.9-8-20.8-8-28.8-0.1l-22.3,22.2
		c-8,7.9-8,20.8-0.1,28.8l21.4,21.5c-15.4,22.3-25.7,47.2-30.6,72.9l-30.1-0.1c-11.2,0-20.4,9.1-20.4,20.3l-0.1,31.5
		c0,11.2,9.1,20.4,20.3,20.4l30,0.1c4.7,25.8,14.8,50.9,30,73.4l-21.2,21c-8,7.9-8,20.8-0.1,28.8l22.2,22.3c7.9,8,20.8,8,28.8,0.1
		l21.2-21c22.5,15.4,47.4,25.6,73.2,30.4l-0.1,30c0,11.2,9.1,20.4,20.3,20.4l31.5,0.1c11.2,0,20.4-9.1,20.4-20.3l0.1-30.1
		c25.7-4.8,50.6-14.9,73-30.3l21.4,21.5c7.9,8,20.8,8,28.8,0.1l22.3-22.2c8-7.9,8-20.8,0.1-28.8l-21.6-21.7
		c15.2-22.3,25.2-47.1,30.1-72.7l30.9,0.1c11.2,0,20.4-9.1,20.4-20.3l0.1-31.5C482.15,214.8,473.05,205.6,461.75,205.6z
		 M241.05,372.6c-72.6,0-131.5-58.9-131.5-131.5s58.9-131.5,131.5-131.5s131.5,58.9,131.5,131.5S313.65,372.6,241.05,372.6z
		 M241.05,152c-49.2,0-89.1,39.9-89.1,89.1s39.9,89.1,89.1,89.1s89.1-39.9,89.1-89.1S290.25,152,241.05,152z M241.05,211.6
		c-16.3,0-29.5,13.2-29.5,29.5c0,7.1-5.7,12.8-12.8,12.8s-12.8-5.7-12.8-12.8c0-30.4,24.7-55.1,55.1-55.1c7.1,0,12.8,5.7,12.8,12.8
		S248.15,211.6,241.05,211.6z"/>
</g>
</svg>
