<svg xmlns="http://www.w3.org/2000/svg" width="33.649" height="25" viewBox="0 0 33.649 25">
  <g id="_1393102221537184105" data-name="1393102221537184105" transform="translate(-0.001 -31.752)">
    <path id="Path_6" data-name="Path 6" d="M21.867,32.458A1.021,1.021,0,0,0,20.58,31.8l-4.273,1.389a1.021,1.021,0,0,0-.656,1.287l.214.658L4.994,43.12.706,44.513A1.021,1.021,0,0,0,.051,45.8l2.605,8.017a1.021,1.021,0,0,0,1.287.656L8.23,53.08l2.2.012a4.618,4.618,0,0,0,9.026.048l2.259.012.214.658a1.021,1.021,0,0,0,1.287.656l4.273-1.389a1.022,1.022,0,0,0,.656-1.287ZM4.283,52.214,2.309,46.14l2.5-.813L6.784,51.4Zm10.668,2.5A2.579,2.579,0,0,1,12.566,53.1l4.761.025A2.579,2.579,0,0,1,14.951,54.709ZM8.814,51.04,7.74,47.734,6.666,44.427l9.863-7.245,3.025,9.309,1.5,4.613Zm14.744,1.166-.125-.386v0l-2.7-8.306-2.825-8.694,2.33-.757,5.649,17.387Z" transform="translate(0)" fill="#0E4597"/>
    <path id="Path_7" data-name="Path 7" d="M182.27,38.328a1.021,1.021,0,0,0,1.374-.446l1.833-3.6a1.021,1.021,0,1,0-1.82-.928l-1.833,3.6A1.021,1.021,0,0,0,182.27,38.328Z" transform="translate(-156.963 -0.904)" fill="#0E4597"/>
    <path id="Path_8" data-name="Path 8" d="M209.939,132.383l-3.6-1.833a1.021,1.021,0,0,0-.927,1.82l3.6,1.833a1.021,1.021,0,0,0,.927-1.82Z" transform="translate(-176.955 -85.246)" fill="#0E4597"/>
    <path id="Path_9" data-name="Path 9" d="M203.923,84.81a1.021,1.021,0,0,0,1.287.656l3.839-1.248a1.022,1.022,0,0,0-.632-1.943l-3.839,1.248A1.022,1.022,0,0,0,203.923,84.81Z" transform="translate(-176.106 -43.598)" fill="#0E4597"/>
  </g>
</svg>
