<svg xmlns="http://www.w3.org/2000/svg" width="28.462" height="21.146" viewBox="0 0 28.462 21.146">
  <g id="_1393102221537184105" data-name="1393102221537184105" transform="translate(0)">
    <path id="Path_6" data-name="Path 6" d="M18.5,32.349a.864.864,0,0,0-1.089-.555l-3.614,1.175a.864.864,0,0,0-.555,1.089l.181.556L4.224,41.368.6,42.546a.864.864,0,0,0-.555,1.089l2.2,6.781a.863.863,0,0,0,1.089.555l3.626-1.178,1.863.01a3.906,3.906,0,0,0,7.634.04l1.911.01.181.556a.864.864,0,0,0,1.089.555l3.615-1.174a.864.864,0,0,0,.555-1.089ZM3.623,49.06,1.953,43.922l2.116-.687,1.669,5.138Zm9.024,2.11a2.181,2.181,0,0,1-2.017-1.359l4.027.021A2.182,2.182,0,0,1,12.646,51.17Zm-5.191-3.1-.909-2.8-.909-2.8,8.343-6.128,2.558,7.874,1.268,3.9Zm12.471.986-.106-.326v0L17.538,41.7l-2.389-7.354L17.12,33.7,21.9,48.412Z" transform="translate(-0.001 -31.752)" fill="#0e4597"/>
    <path id="Path_7" data-name="Path 7" d="M182.184,37.475a.864.864,0,0,0,1.162-.378l1.551-3.042a.864.864,0,1,0-1.539-.785l-1.551,3.042A.864.864,0,0,0,182.184,37.475Z" transform="translate(-160.779 -32.678)" fill="#0e4597"/>
    <path id="Path_8" data-name="Path 8" d="M209.155,132.083l-3.043-1.55a.864.864,0,0,0-.784,1.54l3.043,1.55a.864.864,0,0,0,.784-1.54Z" transform="translate(-181.257 -119.07)" fill="#0e4597"/>
    <path id="Path_9" data-name="Path 9" d="M203.915,84.411a.863.863,0,0,0,1.089.555l3.247-1.055a.864.864,0,0,0-.534-1.643l-3.247,1.055A.864.864,0,0,0,203.915,84.411Z" transform="translate(-180.387 -76.411)" fill="#0e4597"/>
  </g>
</svg>
