<?xml version="1.0" encoding="iso-8859-1"?>
<!-- Generator: Adobe Illustrator 19.1.0, SVG Export Plug-In . SVG Version: 6.00 Build 0)  -->
<svg fill="#0E4597" width="24px" height="24px" version="1.1" id="Capa_1" xmlns="http://www.w3.org/2000/svg" xmlns:xlink="http://www.w3.org/1999/xlink" x="0px" y="0px"
	 viewBox="0 0 488.488 488.488" style="enable-background:new 0 0 488.488 488.488;" xml:space="preserve">
<g>
	<g>
		<g>
			<g>
				<path d="M246.444,173.744c-38.3,0-69.3,31-69.3,69.3s31,69.3,69.3,69.3s69.3-31,69.3-69.3S284.744,173.744,246.444,173.744z
					 M266.344,270.344c-3,3.7-7,6.1-11.6,7.4c-2,0.5-2.9,1.6-2.8,3.7c0.1,2,0,4.1,0,6.1c0,1.8-0.9,2.8-2.7,2.8
					c-2.2,0.1-4.4,0.1-6.6,0c-1.9,0-2.8-1.1-2.9-3c0-1.5,0-3,0-4.5c0-3.3-0.1-3.4-3.3-3.9c-4.1-0.6-8-1.6-11.8-3.4
					c-2.9-1.4-3.2-2.1-2.4-5.2c0.6-2.3,1.3-4.6,2-6.8c0.8-2.6,1.5-2.9,3.9-1.7c4.1,2.1,8.5,3.3,13.1,3.9c3,0.4,5.8,0.1,8.6-1.1
					c5.1-2.2,5.9-8.1,1.6-11.7c-1.5-1.2-3.1-2.1-4.9-2.9c-4.5-2-9.1-3.5-13.3-6c-6.8-4.1-11.2-9.7-10.7-18.1
					c0.6-9.4,5.9-15.3,14.5-18.4c3.6-1.3,3.6-1.2,3.6-5c0-1.3,0-2.5,0-3.8c0.1-2.8,0.6-3.3,3.3-3.4c0.9,0,1.7,0,2.6,0c6,0,6,0,6,6
					c0,4.2,0,4.2,4.2,4.9c3.2,0.5,6.3,1.5,9.3,2.8c1.6,0.7,2.3,1.9,1.8,3.6c-0.7,2.6-1.4,5.2-2.3,7.7c-0.8,2.4-1.5,2.8-3.9,1.6
					c-4.6-2.2-9.5-3.2-14.7-2.9c-1.3,0.1-2.7,0.3-3.9,0.8c-4.4,1.9-5.2,6.8-1.4,9.9c1.9,1.5,4.1,2.6,6.4,3.6
					c3.9,1.6,7.9,3.2,11.6,5.3C271.544,245.244,274.744,260.144,266.344,270.344z"/>
			</g>
		</g>
		<g>
			<circle cx="347.244" cy="246.544" r="19.2"/>
		</g>
		<g>
			<circle cx="145.544" cy="246.544" r="19.2"/>
		</g>
		<g>
			<g>
				<path d="M395.144,129.944h-301.8c-17.4,0-31.6,14.2-31.6,31.6v162.8c0,17.4,14.2,31.6,31.6,31.6h301.8
					c17.4,0,31.6-14.2,31.6-31.6v-162.7C426.844,144.144,412.644,129.944,395.144,129.944z M399.844,294.044c-2.5-0.6-5.2-1-7.9-1
					c-17.7,0-32,14.3-32,32c0,1.3,0.1,2.7,0.3,4h-234.4c0.4-1.9,0.6-3.9,0.6-5.9c0-17.7-14.3-32-32-32c-1.9,0-3.8,0.2-5.6,0.5v-97.2
					c1.8,0.3,3.7,0.5,5.6,0.5c17.7,0,32-14.3,32-32c0-2-0.2-4-0.6-5.9h235c-0.6,2.5-1,5.1-1,7.8c0,17.7,14.3,32,32,32
					c2.7,0,5.4-0.4,7.9-1v98.2H399.844z"/>
			</g>
		</g>
		<g>
			<path d="M197.544,49.244l68,39.2c3.5,2,8-0.5,8-4.6v-21.5h42c27.2,0,49.3,22.1,49.3,49.3h35.4c0-46.7-38-84.8-84.8-84.8h-42
				v-21.5c0-4.1-4.4-6.7-8-4.6l-68,39.2C194.044,42.044,194.044,47.144,197.544,49.244z"/>
		</g>
		<g>
			<path d="M290.944,439.244l-68-39.2c-3.5-2-8,0.5-8,4.6v21.5h-42c-27.2,0-49.3-22.1-49.3-49.3h-35.4c0,46.7,38,84.8,84.8,84.8h42
				v21.5c0,4.1,4.4,6.7,8,4.6l68-39.2C294.444,446.444,294.444,441.344,290.944,439.244z"/>
		</g>
	</g>
</g>
</svg>
