<?xml version="1.0" encoding="iso-8859-1"?>
<!-- Generator: Adobe Illustrator 16.0.0, SVG Export Plug-In . SVG Version: 6.00 Build 0)  -->
<!DOCTYPE svg PUBLIC "-//W3C//DTD SVG 1.1//EN" "http://www.w3.org/Graphics/SVG/1.1/DTD/svg11.dtd">
<svg version="1.1" id="Capa_1" xmlns="http://www.w3.org/2000/svg" xmlns:xlink="http://www.w3.org/1999/xlink" x="0px" y="0px"
	  fill="#0E4597" width="24px" height="24px" viewBox="0 0 39.162 39.162" style="enable-background:new 0 0 39.162 39.162;"
	 xml:space="preserve">
<g>
	<path d="M39.162,22.015V25c0,1.787-1.452,3.24-3.239,3.24h-2.866c-0.731,0-1.328-0.595-1.328-1.328v-6.81
		c0-0.679,0.515-1.233,1.17-1.312c-1.455-6.01-6.865-10.494-13.317-10.494S7.719,12.781,6.264,18.791
		c0.656,0.079,1.17,0.632,1.17,1.312v6.81c0,0.733-0.596,1.328-1.328,1.328H3.239C1.452,28.24,0,26.787,0,25v-2.985
		c0-1.786,1.452-3.239,3.239-3.239h0.296c1.508-7.481,8.128-13.133,16.047-13.133s14.539,5.652,16.047,13.133h0.297
		C37.71,18.774,39.162,20.228,39.162,22.015z M23.586,28.318c-0.457,0.719-1.381,1.217-2.457,1.217c-1.527,0-2.766-0.99-2.766-2.211
		c0-1.223,1.238-2.213,2.766-2.213c1.076,0,2,0.498,2.457,1.217h6.654c0.54-1.332,0.844-2.787,0.844-4.312
		c0-6.354-5.15-11.504-11.504-11.504c-6.354,0-11.505,5.151-11.505,11.504c0,6.354,5.151,11.504,11.505,11.504
		c4.023,0,7.561-2.068,9.617-5.197h-5.611V28.318z"/>
</g>
</svg>
