<svg id="Layer_2" data-name="Layer 2" xmlns="http://www.w3.org/2000/svg" width="33.251" height="33.251" viewBox="0 0 33.251 33.251">
  <g id="Box">
    <path id="Path_81" data-name="Path 81" d="M32.493,7.548l-3.95-5.706A4.289,4.289,0,0,0,25.025,0H8.226A4.289,4.289,0,0,0,4.708,1.842L.758,7.548A4.283,4.283,0,0,0,0,9.975V28.969a4.283,4.283,0,0,0,4.283,4.283H28.969a4.283,4.283,0,0,0,4.283-4.283V9.975a4.283,4.283,0,0,0-.758-2.427ZM25.025,3.325a.951.951,0,0,1,.785.412l2.474,3.578H18.308V3.325ZM7.442,3.737a.951.951,0,0,1,.785-.412h6.737v3.99H4.988ZM29.926,28.969a.951.951,0,0,1-.958.958H4.283a.951.951,0,0,1-.958-.958v-17.5a.831.831,0,0,1,.831-.831H29.1a.831.831,0,0,1,.831.831Z" fill="#fff"/>
    <rect id="Rectangle_72" data-name="Rectangle 72" width="13.301" height="3.325" rx="1.663" transform="translate(9.975 13.966)" fill="#fff"/>
  </g>
</svg>
