<svg xmlns="http://www.w3.org/2000/svg" width="64" height="50.545" viewBox="0 0 64 50.545">
  <path id="_894249421536041812" data-name="894249421536041812" d="M66.848,26.718a53.436,53.436,0,0,0-63.161,0,1.028,1.028,0,0,0-.275,1.353l13.666,23.02a1.028,1.028,0,0,0,1.571.24,24.854,24.854,0,0,1,4.908-3.44,9.433,9.433,0,0,1-.131,7.4,17.4,17.4,0,0,0-1.532,7.178V65.9a1.028,1.028,0,0,0,2.055,0V62.468A15.325,15.325,0,0,1,25.3,56.144a11.515,11.515,0,0,0,.113-9.152,24.8,24.8,0,0,1,8.26-1.98,16.22,16.22,0,0,0,.91,2.5,9.434,9.434,0,0,1,.016,7.775,17.4,17.4,0,0,0-1.532,7.178V65.9a1.028,1.028,0,0,0,2.055,0V62.469a15.325,15.325,0,0,1,1.347-6.324,11.521,11.521,0,0,0-.02-9.491,14.016,14.016,0,0,1-.644-1.687,24.814,24.814,0,0,1,9.82,2.251c.043.1.082.2.127.3a9.437,9.437,0,0,1,.016,7.775,17.4,17.4,0,0,0-1.532,7.178V65.9a1.028,1.028,0,0,0,2.055,0V62.469a15.335,15.335,0,0,1,1.347-6.324,11.518,11.518,0,0,0,.663-7.5,24.86,24.86,0,0,1,3.587,2.684,1.03,1.03,0,0,0,.688.264,1.078,1.078,0,0,0,.155-.012,1.027,1.027,0,0,0,.729-.492L67.124,28.072A1.03,1.03,0,0,0,66.848,26.718ZM52.312,48.988a26.827,26.827,0,0,0-5.09-3.284,14.939,14.939,0,0,1-.936-5.213v-4.6l1.524,2.334A1.028,1.028,0,1,0,49.531,37.1L46.12,31.876l0,0a1.029,1.029,0,0,0-.15-.177c-.016-.015-.033-.027-.049-.04a.982.982,0,0,0-.138-.1l-.065-.036a1.026,1.026,0,0,0-.156-.061c-.021-.007-.042-.014-.064-.02a.952.952,0,0,0-.47,0c-.022.005-.042.013-.064.02a1.025,1.025,0,0,0-.156.061c-.023.011-.044.023-.065.036a1.016,1.016,0,0,0-.137.1c-.016.014-.034.026-.049.041a1.029,1.029,0,0,0-.15.177l0,0L40.985,37.1a1.028,1.028,0,1,0,1.721,1.123l1.526-2.335v4.6a17.187,17.187,0,0,0,.51,4.135A26.885,26.885,0,0,0,35.31,42.9a15.2,15.2,0,0,1-.193-2.41v-4.6l1.525,2.335A1.028,1.028,0,0,0,38.363,37.1l-3.412-5.225a1.028,1.028,0,0,0-1.721,0L29.817,37.1a1.028,1.028,0,0,0,1.721,1.123l1.525-2.335v4.6a17.245,17.245,0,0,0,.186,2.489,26.84,26.84,0,0,0-8.583,2.1,15.04,15.04,0,0,1-.717-4.588v-4.6l1.524,2.334A1.028,1.028,0,1,0,27.194,37.1l-3.412-5.225,0,0a1.026,1.026,0,0,0-1.714,0l0,0L18.649,37.1a1.028,1.028,0,1,0,1.721,1.123l1.524-2.334v4.6a17.072,17.072,0,0,0,.9,5.476,26.891,26.891,0,0,0-4.574,3.021L5.659,27.827a51.387,51.387,0,0,1,59.217,0Z" transform="translate(-3.268 -16.386)" fill="#4dd179"/>
</svg>
