<svg xmlns="http://www.w3.org/2000/svg" width="70.254" height="55" viewBox="0 0 70.254 55">
  <path id="_109581868216276584373773" data-name="109581868216276584373773" d="M69.912,35.178H6.684V18.962c.246-7.658,11.346-7.669,11.592,0a2.342,2.342,0,0,0,4.684,0c-.55-13.9-20.409-13.9-20.959,0V44.054A13.418,13.418,0,0,0,13.065,57.238V61.2a2.342,2.342,0,0,0,4.684,0V57.461H56.505V61.2a2.342,2.342,0,0,0,4.684,0V57.238A13.419,13.419,0,0,0,72.254,44.054V37.52a2.342,2.342,0,0,0-2.342-2.342Z" transform="translate(-2 -8.538)" fill="#4dd179"/>
</svg>
