<svg xmlns="http://www.w3.org/2000/svg" width="58" height="50.175" viewBox="0 0 58 50.175">
  <g id="_6269235511594941409" data-name="6269235511594941409" transform="translate(0 -3.19)">
    <circle id="Ellipse_9" data-name="Ellipse 9" cx="7.467" cy="7.467" r="7.467" transform="translate(1 37.432)" fill="none" stroke="#4dd179" stroke-linecap="round" stroke-linejoin="round" stroke-miterlimit="10" stroke-width="2"/>
    <path id="Path_272" data-name="Path 272" d="M3.2,27.2l.747-4.48a8.442,8.442,0,0,1,8.4-6.72h6.16a8.635,8.635,0,0,1,5.973,2.427l7.28,6.907c5.787,5.6,1.68,14.933-6.533,14.933H11.413" transform="translate(1.907 10.232)" fill="none" stroke="#4dd179" stroke-linecap="round" stroke-linejoin="round" stroke-miterlimit="10" stroke-width="2"/>
    <line id="Line_19" data-name="Line 19" x2="11.2" transform="translate(45.8 50.498)" fill="none" stroke="#4dd179" stroke-linecap="round" stroke-linejoin="round" stroke-miterlimit="10" stroke-width="2"/>
    <path id="Path_273" data-name="Path 273" d="M18.376,31.832h0a11.293,11.293,0,0,0,.56-15.493l-2.053-2.427a5.783,5.783,0,0,1,.747-8.4h0a5.727,5.727,0,0,1,8.213.933h0a51.67,51.67,0,0,1,11.2,32.107V50.5" transform="translate(12.49)" fill="none" stroke="#4dd179" stroke-linecap="round" stroke-linejoin="round" stroke-miterlimit="10" stroke-width="2"/>
  </g>
</svg>
