<svg xmlns="http://www.w3.org/2000/svg" width="51" height="51" viewBox="0 0 51 51">
  <g id="_15017400951637656063" data-name="15017400951637656063" transform="translate(-3 -3)">
    <path id="Path_225" data-name="Path 225" d="M28.5,3,3,18.828V54H54V18.828Z" fill="#4dd179"/>
    <path id="Path_226" data-name="Path 226" d="M50.034,13.376V3H43V8.979Z" transform="translate(-4.828)" fill="#464a51"/>
    <path id="Path_227" data-name="Path 227" d="M50.034,13.883V11.86L43,7.2V9.486Z" transform="translate(-4.828 -0.507)" fill="#33363b"/>
    <path id="Path_228" data-name="Path 228" d="M17.776,40.8,7.664,50.912a.85.85,0,0,0,0,1.231L9.95,54.429a.85.85,0,0,0,1.231,0L21.205,44.405A16.689,16.689,0,0,1,17.776,40.8Z" transform="translate(-0.531 -4.562)" fill="#2d72bc"/>
    <path id="Path_229" data-name="Path 229" d="M11.181,53.421a.85.85,0,0,1-1.231,0l-2.2-2.2-.088.088a.85.85,0,0,0,0,1.231L9.95,54.828a.85.85,0,0,0,1.231,0L21.205,44.8l-.7-.7Z" transform="translate(-0.531 -4.96)" fill="#2a69ad"/>
    <path id="Path_230" data-name="Path 230" d="M30.948,14A14.948,14.948,0,1,0,45.9,28.948,14.936,14.936,0,0,0,30.948,14Z" transform="translate(-1.569 -1.328)" fill="#80a7d1"/>
    <path id="Path_231" data-name="Path 231" d="M24,38.793h0a16.364,16.364,0,0,0,8.793-2.638h0a10.362,10.362,0,0,0,1.934-1.495l1.495-1.319L32.793,30Z" transform="translate(-2.534 -3.259)" fill="#9c6721"/>
    <path id="Path_232" data-name="Path 232" d="M36.983,32.717l.264-.176a4.761,4.761,0,0,0-.176-7.386h0a4.93,4.93,0,0,0-2.99-1.055h0a4.684,4.684,0,0,0-3.605,1.671l-.176.264,3.253,3.253Z" transform="translate(-3.295 -2.547)" fill="#9c6721"/>
    <path id="Path_233" data-name="Path 233" d="M32.793,29.529,29.364,26.1l-1.319,1.495a15.549,15.549,0,0,0-1.407,1.934h0A16.364,16.364,0,0,0,24,38.322Z" transform="translate(-2.534 -2.788)" fill="#9c6721"/>
    <path id="Path_234" data-name="Path 234" d="M35.212,27.666,32.047,24.5a4.592,4.592,0,0,0-1.671,1.231l-.176.264,3.341,3.341,3.429,3.429.264-.176a4.592,4.592,0,0,0,1.231-1.671Z" transform="translate(-3.283 -2.595)" fill="#8c5d1e"/>
    <path id="Path_235" data-name="Path 235" d="M34.716,32.4a15.55,15.55,0,0,1-1.934,1.407,16.544,16.544,0,0,1-8.617,2.638,13.42,13.42,0,0,0-.264,2.638h0a16.364,16.364,0,0,0,8.793-2.638,10.362,10.362,0,0,0,1.934-1.495l1.495-1.319L34.716,32.4Z" transform="translate(-2.522 -3.548)" fill="#8c5d1e"/>
    <g id="Group_95" data-name="Group 95" transform="translate(32.369 17.157)">
      <path id="Path_236" data-name="Path 236" d="M38.422,24.9l-1.495-.967a2.3,2.3,0,0,0,.352-1.847,2.84,2.84,0,0,0-.879-1.495l.967-1.495a4.055,4.055,0,0,1,1.671,2.726A3.763,3.763,0,0,1,38.422,24.9Z" transform="translate(-36.4 -19.1)" fill="#6e4917"/>
    </g>
    <g id="Group_96" data-name="Group 96" transform="translate(34.216 22.09)">
      <path id="Path_237" data-name="Path 237" d="M42.809,27.515a2.491,2.491,0,0,0-1.495-.967,2.711,2.711,0,0,0-1.847.352L38.5,25.4a4.161,4.161,0,0,1,5.716,1.055Z" transform="translate(-38.5 -24.711)" fill="#6e4917"/>
    </g>
    <g id="Group_97" data-name="Group 97" transform="translate(24.103 19.707)">
      <path id="Path_238" data-name="Path 238" d="M29.9,25.429l-1.495-1.671H27V22h1.759a.8.8,0,0,1,.616.264L31.221,24.2Z" transform="translate(-27 -22)" fill="#6e4917"/>
    </g>
    <g id="Group_98" data-name="Group 98" transform="translate(20.586 24.103)">
      <path id="Path_239" data-name="Path 239" d="M25.9,30.253l-1.495-1.495H23V27h1.759a.8.8,0,0,1,.616.264l1.759,1.759Z" transform="translate(-23 -27)" fill="#6e4917"/>
    </g>
    <g id="Group_99" data-name="Group 99" transform="translate(18.036 29.291)">
      <path id="Path_240" data-name="Path 240" d="M21.683,35.978,20.1,35.186l.879-1.759a1.011,1.011,0,0,1,.791-.528h2.638v1.759H22.3Z" transform="translate(-20.1 -32.9)" fill="#6e4917"/>
    </g>
    <g id="Group_100" data-name="Group 100" transform="translate(33.864 28.676)">
      <path id="Path_241" data-name="Path 241" d="M41.529,36.421H39.771V35.014L38.1,33.431,39.331,32.2l1.934,1.847a.8.8,0,0,1,.264.616Z" transform="translate(-38.1 -32.2)" fill="#6e4917"/>
    </g>
    <g id="Group_101" data-name="Group 101" transform="translate(29.643 32.281)">
      <path id="Path_242" data-name="Path 242" d="M36.553,40.433H34.795V39.026L33.3,37.531,34.531,36.3l1.759,1.759a.8.8,0,0,1,.264.616Z" transform="translate(-33.3 -36.3)" fill="#6e4917"/>
    </g>
    <g id="Group_102" data-name="Group 102" transform="translate(24.543 34.655)">
      <path id="Path_243" data-name="Path 243" d="M28.291,43.309,27.5,41.726l1.231-.616V39H30.49v2.638a.845.845,0,0,1-.528.791Z" transform="translate(-27.5 -39)" fill="#6e4917"/>
    </g>
    <g id="Group_103" data-name="Group 103" transform="translate(32 34.379)">
      <path id="Path_244" data-name="Path 244" d="M36,43.007h0a1,1,0,0,1,.528-1.055,9.9,9.9,0,0,0,4.572-2.99.822.822,0,0,1,1.143-.088h0a.881.881,0,0,1,.088,1.319,12.5,12.5,0,0,1-5.276,3.429A.781.781,0,0,1,36,43.007Z" transform="translate(-35.981 -38.686)" fill="#fff"/>
    </g>
    <g id="Group_104" data-name="Group 104" transform="translate(38.984 30.154)">
      <path id="Path_245" data-name="Path 245" d="M44.43,36.624h0a.873.873,0,0,1-.44-1.143,4.286,4.286,0,0,0,.352-.967A.955.955,0,0,1,45.4,33.9h0a.834.834,0,0,1,.616,1.143c-.088.352-.264.7-.352,1.055A.874.874,0,0,1,44.43,36.624Z" transform="translate(-43.923 -33.881)" fill="#fff"/>
    </g>
    <path id="Path_246" data-name="Path 246" d="M33.112,23A5.8,5.8,0,0,0,28.8,24.934l-1.495,1.671A16.9,16.9,0,0,0,23,37.948a.9.9,0,0,0,.879.879,16.9,16.9,0,0,0,11.343-4.309l1.671-1.495A5.731,5.731,0,0,0,33.112,23Zm-4.484,4.748.7-.791,2.11,2.11-6.507,6.507A15.375,15.375,0,0,1,28.628,27.748Zm-2.462,9.145,6.507-6.507,2.11,2.11-.791.7A14.74,14.74,0,0,1,26.166,36.893Zm9.936-5.54-5.54-5.54a4.006,4.006,0,0,1,2.55-.967A3.94,3.94,0,0,1,37.069,28.8,4.2,4.2,0,0,1,36.1,31.353Z" transform="translate(-2.414 -2.414)" fill="#8c5d1e"/>
  </g>
</svg>
