<svg xmlns="http://www.w3.org/2000/svg" width="52.796" height="52.01" viewBox="0 0 52.796 52.01">
  <g id="_18667309301583900707" data-name="18667309301583900707" transform="translate(-0.5 -0.5)">
    <path id="Path_247" data-name="Path 247" d="M14.758,14.238a3.734,3.734,0,0,0-4.71-2.355A3.387,3.387,0,0,0,7.5,14.435c-.2,0-.2.2-.2.393v.589a3.945,3.945,0,0,0,.785,2.551,2.429,2.429,0,0,0,.589.393,3.091,3.091,0,0,0,2.551.785,4.116,4.116,0,0,0,2.159-.785c.2,0,.2-.2.393-.2a3.455,3.455,0,0,0,1.178-2.551,1.239,1.239,0,0,0-.2-1.374Zm-3.533,3.14a1.963,1.963,0,0,1,0-3.925,1.854,1.854,0,0,1,1.963,1.963A1.967,1.967,0,0,1,11.225,17.379Z" transform="translate(6.546 10.795)" fill="#4dd179"/>
    <path id="Path_248" data-name="Path 248" d="M18.6,15.4a5.239,5.239,0,0,0-5.3,5.1,5.114,5.114,0,0,0,5.3,5.1,5.2,5.2,0,0,0,5.1-5.1A4.948,4.948,0,0,0,18.6,15.4Zm0,8.636a3.337,3.337,0,0,1,0-6.673A3.439,3.439,0,0,1,21.936,20.7,3.308,3.308,0,0,1,18.6,24.036Z" transform="translate(12.322 14.344)" fill="#4dd179"/>
    <path id="Path_249" data-name="Path 249" d="M16.864,13.866a3.827,3.827,0,0,0,3.729-3.533,3.533,3.533,0,1,0-7.066,0C13.134,12.3,14.9,13.866,16.864,13.866Zm0-5.3A1.766,1.766,0,1,1,15.1,10.333,1.759,1.759,0,0,1,16.864,8.566Z" transform="translate(12.488 6.065)" fill="#4dd179"/>
    <path id="Path_250" data-name="Path 250" d="M52.707,24.248a.981.981,0,1,0-1.963,0v1.178c0,.2,0,.2-.2.2H47.211c-.2,0-.2,0-.2-.2v-.785a19.383,19.383,0,0,0-2.159-7.262v-.393L47.8,15.22H48c.2.393.393.589.589.981a1.214,1.214,0,0,0,1.374.393c.589,0,.589-.589.393-.981-.785-1.374-1.57-2.551-2.355-3.925-.2-.589-.785-.589-1.374-.393a1.126,1.126,0,0,0-.393,1.374c.393.2.589.589.785.785s.2.2,0,.393a21.451,21.451,0,0,1-2.944,1.57c-.2.2-.2,0-.393-.2a13.751,13.751,0,0,0-1.57-1.963,19.7,19.7,0,0,0-4.318-3.729c-.2-.2-.2-.2,0-.393.589-.981,1.178-1.963,1.57-2.748.2-.2.2-.2.393,0,.393.2.589.393.981.589a.944.944,0,0,0,1.178-.393.787.787,0,0,0-.393-1.178L37.4,3.051a.787.787,0,0,0-1.178.393.787.787,0,0,0,.393,1.178,4.29,4.29,0,0,1,.981.589c.2,0,.2.2,0,.2L35.828,8.351c0,.2-.2.2-.393,0a6.972,6.972,0,0,0-1.766-.785,22.439,22.439,0,0,0-6.281-1.374c-.2,0-.2,0-.2-.2V2.659c0-.2,0-.2.2-.2h1.178a.927.927,0,0,0,.981-.981A.927.927,0,0,0,28.566.5h-4.71a.927.927,0,0,0-.981.981.927.927,0,0,0,.981.981h1.178c.2,0,.2,0,.2.2V5.8c0,.2,0,.393-.393.393a15.15,15.15,0,0,0-2.944.393c-1.178.393-2.748.981-4.514,1.766-.2,0-.2,0-.393-.2a19.613,19.613,0,0,0-1.57-2.748c0-.2-.2-.2,0-.393.393-.2.589-.393.981-.589.589-.2.785-.785.393-1.178a.787.787,0,0,0-1.178-.393c-1.374.785-2.551,1.57-3.925,2.355-.589.2-.785.785-.393,1.178a1.126,1.126,0,0,0,1.374.393c.2-.2.589-.393.785-.589h.2l1.766,2.944v.393a21.025,21.025,0,0,0-5.888,5.888c0,.2-.2.2-.2,0L6.388,13.65c-.2,0-.2-.2,0-.2a3.316,3.316,0,0,1,.393-.981.787.787,0,0,0-.393-1.178.74.74,0,0,0-1.178.2L2.855,15.612a.944.944,0,0,0,.393,1.178.74.74,0,0,0,1.178-.2c.2-.393.393-.589.589-.981,0-.2.2-.2.393,0a21.451,21.451,0,0,0,2.944,1.57c.2,0,0,0,0,.2a9.253,9.253,0,0,0-1.178,2.944,21.752,21.752,0,0,0-.981,4.907c0,.2,0,.393-.2.393H2.659c-.2,0-.2,0-.2-.2V24.248a1.1,1.1,0,0,0-1.178-.981c-.393,0-.589.393-.785.589v5.3c0,.2.2.393.393.589a.876.876,0,0,0,.981,0c.393-.2.589-.393.589-.785V27.781c0-.2,0-.2.393-.2H6a.422.422,0,0,1,.393.393v.785a21.187,21.187,0,0,0,1.963,6.869c.2.393.2.393-.2.589A16.221,16.221,0,0,1,5.6,37.594c-.2.2-.393,0-.393-.2-.2-.2-.393-.589-.589-.785a1.02,1.02,0,0,0-.785-.393c-.393,0-.785,0-.981.393a1.251,1.251,0,0,0,0,1.178c.785,1.374,1.57,2.551,2.355,3.925.393.589.981.785,1.374.393a1.126,1.126,0,0,0,.393-1.374,1.488,1.488,0,0,1-.393-.785c-.2-.2-.2-.393,0-.393.981-.589,1.766-.981,2.748-1.57h.393c.2.2.2.393.393.589a18.341,18.341,0,0,0,3.14,3.533,7.684,7.684,0,0,0,1.963,1.57c.2.2.2.2.2.393-.589.981-.981,1.766-1.57,2.748,0,.2-.2.2-.393,0a1.488,1.488,0,0,1-.785-.393,1.18,1.18,0,0,0-.785-.2c-.393.2-.785.393-.785.785a1.442,1.442,0,0,0,.393,1.178c1.374.785,2.551,1.57,3.925,2.355a.916.916,0,0,0,1.374-.2,1.035,1.035,0,0,0-.393-1.374c-.2-.2-.589-.393-.785-.589s-.2-.2-.2-.589c.393-.785.981-1.57,1.374-2.355.393-.589.393-.589.785-.393a17.575,17.575,0,0,0,4.514,1.57,15.254,15.254,0,0,0,3.14.393c.2,0,.393,0,.393.393v2.944a.422.422,0,0,1-.393.393H24.052a1.3,1.3,0,0,0-.981.785c0,.589.2.981.785.981h5.3a1.187,1.187,0,0,0,.589-1.178c-.2-.393-.393-.785-.981-.785h-.981c-.2,0-.2,0-.2-.2v-3.14c0-.2,0-.393.393-.393a23.355,23.355,0,0,0,8.047-2.159h.393L38.183,47.6V48c-.393.2-.589.393-.981.589-.589.393-.589.785-.393,1.374a.916.916,0,0,0,1.374.2c1.374-.785,2.551-1.57,3.925-2.355.589-.2.589-.785.393-1.374a1.126,1.126,0,0,0-1.374-.393c-.393.2-.589.393-.981.589-.2,0-.2.2-.393,0a21.451,21.451,0,0,1-1.57-2.944c0-.2-.2-.2,0-.393A21.025,21.025,0,0,0,44.071,37.4c0-.2.2-.2.393,0l2.944,1.766c.2,0,.2.2,0,.2a4.29,4.29,0,0,1-.589.981.944.944,0,0,0,.393,1.178.787.787,0,0,0,1.178-.393l2.355-4.122a.878.878,0,0,0-1.57-.785c-.2.393-.393.589-.589.981-.2.2-.2.2-.393.2-.981-.589-1.963-1.178-2.748-1.57-.2-.2-.2-.2,0-.393a9.253,9.253,0,0,0,1.178-2.944,21.376,21.376,0,0,0,.981-5.1c0-.2,0-.393.2-.393h3.337c.2,0,.2,0,.2.2V28.37a.981.981,0,0,0,1.963,0C52.707,27.388,52.707,25.818,52.707,24.248Zm-26.1,21.2A18.842,18.842,0,1,1,45.445,26.6,18.846,18.846,0,0,1,26.6,45.445Z" transform="translate(0)" fill="#4dd179"/>
    <path id="Path_251" data-name="Path 251" d="M19.434,8.234a.841.841,0,0,0,.2,1.374,11.264,11.264,0,0,1,2.944,4.514,8.934,8.934,0,0,1,.981,3.925v.2c0,.589.2.981.785.981h.393c.393-.2.589-.393.589-.785v-.2A16.845,16.845,0,0,0,20.808,8.43.841.841,0,0,0,19.434,8.234Z" transform="translate(17.964 7.182)" fill="#4dd179"/>
  </g>
</svg>
