<svg xmlns="http://www.w3.org/2000/svg" width="52.752" height="50.8" viewBox="0 0 52.752 50.8">
  <g id="_923110711595452641" data-name="923110711595452641" transform="translate(-2 -3)">
    <path id="Path_280" data-name="Path 280" d="M14.712,43.28H6.9a3.915,3.915,0,0,1-3.9-3.9V19.856A5.751,5.751,0,0,1,8.856,14h0a5.751,5.751,0,0,1,5.856,5.856Z" transform="translate(0 9.52)" fill="none" stroke="#4dd179" stroke-linecap="round" stroke-linejoin="round" stroke-miterlimit="10" stroke-width="2"/>
    <path id="Path_281" data-name="Path 281" d="M30.808,43.28H23V19.856A5.751,5.751,0,0,1,28.856,14h0a5.751,5.751,0,0,1,5.856,5.856v19.52A3.915,3.915,0,0,1,30.808,43.28Z" transform="translate(19.04 9.52)" fill="none" stroke="#4dd179" stroke-linecap="round" stroke-linejoin="round" stroke-miterlimit="10" stroke-width="2"/>
    <rect id="Rectangle_64" data-name="Rectangle 64" width="27.397" height="19.691" transform="translate(14.986 33.109)" fill="none" stroke="#4dd179" stroke-linecap="round" stroke-linejoin="round" stroke-miterlimit="10" stroke-width="2"/>
    <path id="Path_282" data-name="Path 282" d="M6,23.52v-12.1A7.414,7.414,0,0,1,13.418,4h24.01a7.459,7.459,0,0,1,7.613,7.418v12.1" transform="translate(2.856)" fill="none" stroke="#4dd179" stroke-linecap="round" stroke-linejoin="round" stroke-miterlimit="10" stroke-width="2"/>
  </g>
</svg>
