<svg xmlns="http://www.w3.org/2000/svg" width="7.038" height="6.731" viewBox="0 0 7.038 6.731">
  <path id="_9793425631537356145" data-name="9793425631537356145" d="M3.859,1.258l.794,1.609a.379.379,0,0,0,.285.207l1.775.258a.379.379,0,0,1,.21.646L5.639,5.23a.379.379,0,0,0-.109.335l.3,1.768a.379.379,0,0,1-.55.4L3.7,6.9a.379.379,0,0,0-.353,0l-1.588.835a.379.379,0,0,1-.55-.4l.3-1.768A.379.379,0,0,0,1.4,5.23L.115,3.978a.379.379,0,0,1,.21-.646L2.1,3.074a.379.379,0,0,0,.285-.207L3.18,1.258A.379.379,0,0,1,3.859,1.258Z" transform="translate(-0.001 -1.047)" fill="#edbc19"/>
</svg>
