<svg id="_7981308291558424386" data-name="7981308291558424386" xmlns="http://www.w3.org/2000/svg" width="29.055" height="29.055" viewBox="0 0 29.055 29.055">
  <g id="Group_2" data-name="Group 2">
    <path id="Path_32" data-name="Path 32" d="M15.98,7.264H13.075v5.811H7.264V15.98h5.811v5.811H15.98V15.98h5.811V13.075H15.98ZM23.244,0H5.811A5.811,5.811,0,0,0,0,5.811V23.244a5.811,5.811,0,0,0,5.811,5.811H23.244a5.811,5.811,0,0,0,5.811-5.811V5.811A5.811,5.811,0,0,0,23.244,0ZM26.15,21.791a4.358,4.358,0,0,1-4.358,4.358H7.264a4.358,4.358,0,0,1-4.358-4.358V7.264A4.358,4.358,0,0,1,7.264,2.905H21.792A4.358,4.358,0,0,1,26.15,7.264V21.791Z" fill="#2fc99a"/>
  </g>
</svg>
