<svg xmlns="http://www.w3.org/2000/svg" width="75" height="61.608" viewBox="0 0 75 61.608">
  <g id="_11-20" data-name="11-20" transform="translate(-2 -4)">
    <g id="Profit" transform="translate(2 3.999)">
      <path id="Path_22" data-name="Path 22" d="M74.321,48.5H68.964V16.357A5.357,5.357,0,0,0,63.607,11H58.25a5.357,5.357,0,0,0-5.357,5.357V48.5H47.536V24.393a5.357,5.357,0,0,0-5.357-5.357H36.821a5.357,5.357,0,0,0-5.357,5.357V48.5H26.107V32.429a5.357,5.357,0,0,0-5.357-5.357H15.393a5.357,5.357,0,0,0-5.357,5.357V48.5H4.679a2.679,2.679,0,1,0,0,5.357H74.321a2.679,2.679,0,1,0,0-5.357Zm-58.929,0V32.429H20.75V48.5Zm21.429,0V24.393h5.357V48.5Zm21.429,0V16.357h5.357V48.5Z" transform="translate(-2 7.751)"/>
      <path id="Path_23" data-name="Path 23" d="M6.678,33.465A2.679,2.679,0,0,0,7.6,33.3L57.737,14.854l-.646,1.374A2.679,2.679,0,0,0,61.942,18.5l3.41-7.27a2.679,2.679,0,0,0-1.288-3.563L56.786,4.253a2.679,2.679,0,1,0-2.271,4.854l1.465.686L5.751,28.274a2.679,2.679,0,0,0,.927,5.191Z" transform="translate(1.358 -3.999)"/>
    </g>
  </g>
</svg>
