<svg xmlns="http://www.w3.org/2000/svg" width="81.255" height="62.751" viewBox="0 0 81.255 62.751">
  <path id="_42_Announcement_Loud_speaker_Megaphone" data-name="42 Announcement, Loud, speaker, Megaphone" d="M83.25,38.377A14.772,14.772,0,0,0,70.325,23.734V8.833a1.791,1.791,0,0,0-2.714-1.57L34.8,23.6H14.93a5.54,5.54,0,0,0-5.54,5.54v.185a9.233,9.233,0,0,0,0,18.1v.185a5.54,5.54,0,0,0,5.54,5.54V64.228a5.54,5.54,0,0,0,5.54,5.54h7.386a5.54,5.54,0,0,0,5.54-5.54V53.149h1.4L67.648,69.564a1.838,1.838,0,0,0,2.677-1.643V53.02A14.772,14.772,0,0,0,83.25,38.377Zm-77.553,0A5.54,5.54,0,0,1,9.39,33.17V43.584A5.54,5.54,0,0,1,5.7,38.377Zm7.386,9.233V29.144A1.847,1.847,0,0,1,14.93,27.3H33.395V49.456H14.93A1.847,1.847,0,0,1,13.083,47.61ZM27.855,66.075H20.469a1.847,1.847,0,0,1-1.847-1.847V62.382H29.7v1.847A1.847,1.847,0,0,1,27.855,66.075ZM29.7,58.689H18.623v-5.54H29.7Zm36.93,6.241L37.088,50.158V26.6L66.632,11.824Zm3.693-15.64V27.464a11.079,11.079,0,0,1,0,21.826Z" transform="translate(-1.995 -7.016)"/>
</svg>
