<?xml version="1.0" encoding="utf-8"?>
<!-- Generator: Adobe Illustrator 16.0.0, SVG Export Plug-In . SVG Version: 6.00 Build 0)  -->
<!DOCTYPE svg PUBLIC "-//W3C//DTD SVG 1.1//EN" "http://www.w3.org/Graphics/SVG/1.1/DTD/svg11.dtd">
<svg version="1.1" id="Layer_1" xmlns="http://www.w3.org/2000/svg" xmlns:xlink="http://www.w3.org/1999/xlink" x="0px" y="0px"
	  fill="#2fc99a" width="fit-content" height="fit-content" viewBox="0 0 612 792" enable-background="new 0 0 612 792" xml:space="preserve">
<path d="M172.5,509.442c0,6.894,5.62,12.482,12.552,12.482h296.017c6.933,0,12.552-5.589,12.552-12.482V310.242
	c0-6.894-5.619-12.482-12.552-12.482H185.052c-6.932,0-12.552,5.588-12.552,12.482V509.442z"/>
<path d="M177.166,509.442c0,6.894,5.621,12.482,12.553,12.482h296.017c6.932,0,12.552-5.589,12.552-12.482V310.242
	c0-6.894-5.62-12.482-12.552-12.482H189.719c-6.932,0-12.553,5.588-12.553,12.482V509.442z"/>
<path d="M0,441.979v97.348c0,9.685,7.851,17.533,17.534,17.533h77.267c-0.019,0.613-0.095,1.21-0.095,1.823
	c0,38.95,31.692,70.645,70.645,70.645c38.957,0,70.656-31.692,70.656-70.645c0-0.62-0.076-1.215-0.095-1.823h95.617
	c-0.02,0.613-0.096,1.21-0.096,1.823c0,38.95,31.694,70.645,70.651,70.645c38.958,0,70.651-31.692,70.651-70.645
	c0-0.647-0.08-1.279-0.099-1.922c30.641-1.053,55.263-26.246,55.263-57.146v-90.814C576.87,391.24,612,344.37,612,289.439
	c0-69.898-56.864-126.769-126.763-126.767c-62.41,0-114.395,45.356-124.821,104.834H205.07c-30.207,0-54.965,23.527-57.051,53.205
	H87.515c-5.825,0-11.273,2.894-14.534,7.726L2.996,432.173C1.042,435.071-0.005,438.491,0,441.979z M485.237,381.152
	c-50.557,0-91.696-41.137-91.696-91.701c0-50.564,41.137-91.702,91.696-91.702s91.697,41.137,91.697,91.702
	C576.935,340.015,535.795,381.152,485.237,381.152z M366.499,558.695c0-19.631,15.96-35.591,35.586-35.591
	s35.586,15.964,35.586,35.591c0,19.619-15.967,35.579-35.586,35.579S366.506,578.308,366.499,558.695z M182.873,490.337V324.762
	c0-12.231,9.952-22.184,22.19-22.184h154.083c6.588,63.754,60.618,113.642,126.084,113.642c2.556,0,5.086-0.102,7.604-0.247v83.648
	c0,12.231-9.952,22.184-22.184,22.184h-8.42c-12.444-20.216-34.709-33.768-60.144-33.768c-25.436,0-47.7,13.552-60.144,33.768
	h-0.003v0.009H225.489C216.01,506.414,200.826,494.943,182.873,490.337z M129.77,558.695c0-19.631,15.967-35.591,35.579-35.591
	c19.631,0,35.591,15.964,35.591,35.591c0,19.619-15.965,35.579-35.591,35.579C145.733,594.274,129.767,578.308,129.77,558.695z
	 M35.063,521.805v-74.467l61.769-91.562h50.389v134.703c-17.69,4.71-32.634,16.101-42.008,31.325H35.063L35.063,521.805z"/>
<circle cx="484.834" cy="291.759" r="110.667"/>
<g>
	<circle fill="#FFFFFF" cx="489.56" cy="291.759" r="147.5"/>
	<circle cx="488.726" cy="292.41" r="120.997"/>
</g>
<g>
	<path fill="#FFFFFF" d="M507.094,306.226v-52.599c0-9.685-7.85-17.534-17.535-17.534s-17.533,7.851-17.533,17.534v52.597
		c0,9.685,7.852,17.534,17.533,17.534C499.242,323.757,507.09,315.908,507.094,306.226z"/>
	<circle fill="#FFFFFF" cx="489.564" cy="348.923" r="15.621"/>
</g>
</svg>
