<?xml version="1.0" encoding="iso-8859-1"?>
<!-- Generator: Adobe Illustrator 16.0.0, SVG Export Plug-In . SVG Version: 6.00 Build 0)  -->
<!DOCTYPE svg PUBLIC "-//W3C//DTD SVG 1.1//EN" "http://www.w3.org/Graphics/SVG/1.1/DTD/svg11.dtd">
<svg fill="#2fc99a" width="24px" height="24px" version="1.1" id="Capa_1" xmlns="http://www.w3.org/2000/svg" xmlns:xlink="http://www.w3.org/1999/xlink" x="0px" y="0px"
	  viewBox="0 0 347.73 347.73" style="enable-background:new 0 0 347.73 347.73;"
	 xml:space="preserve">

			<path d="M58.684,251.573c-10.415,0-18.876,8.455-18.876,18.844c0,10.412,8.461,18.885,18.876,18.885
				c10.421,0,18.9-8.473,18.9-18.885C77.578,260.028,69.099,251.573,58.684,251.573z M58.684,279.784
				c-5.158,0-9.358-4.203-9.358-9.355c0-5.141,4.2-9.332,9.358-9.332c5.17,0,9.371,4.191,9.371,9.332
				C68.054,275.581,63.854,279.784,58.684,279.784z"/>

			<path d="M257.244,253.183c-10.406,0-18.873,8.449-18.873,18.844c0,10.412,8.467,18.866,18.873,18.866
				c10.412,0,18.885-8.454,18.885-18.866C276.129,261.632,267.656,253.183,257.244,253.183z M257.244,281.394
				c-5.158,0-9.355-4.203-9.355-9.355c0-5.141,4.197-9.332,9.355-9.332c5.164,0,9.361,4.191,9.361,9.332
				C266.605,277.196,262.402,281.394,257.244,281.394z"/>

			<path d="M268.203,207.511c-48.441,0-87.862-39.416-87.862-87.875c0-7.152,0.97-14.52,2.895-21.884l1.549-5.966h-52.215
				l-0.051,42.778H87.798c-21.305,0-40.307,24.406-57.073,45.937c-5.245,6.725-10.184,13.09-14.667,17.942l-0.48,0.618
				c-23.106,35.146-13.79,72.088-13.379,73.637l0.928,3.555H22.25c2.804,17.601,18.053,31.117,36.434,31.117
				c18.384,0,33.648-13.511,36.443-31.117h37.256h5.897h82.263c2.113,18.393,17.756,32.727,36.695,32.727
				c18.957,0,34.594-14.334,36.701-32.727h32.132v-39.871h10.431v-60.57l-8.035,7.596
				C312.014,198.936,290.613,207.511,268.203,207.511z M86.33,144.433h42.298v47.621H35.526
				C50.652,171.175,74.092,144.433,86.33,144.433z M58.684,297.858c-13.892,0-25.277-10.437-27.055-23.852v-2.521
				c0-15.348,12.487-27.82,27.847-27.82c5.621,0,10.83,1.688,15.213,4.558c6.894,4.996,11.43,13.055,11.43,22.194
				C86.113,285.549,73.81,297.858,58.684,297.858z M257.244,299.456c-15.12,0-27.412-12.311-27.412-27.418
				c0-15.133,12.292-27.442,27.412-27.442c14.97,0,27.136,12.069,27.394,26.979v0.919
				C284.38,287.386,272.208,299.456,257.244,299.456z"/>

			<path d="M267.08,200.04c44.472,0,80.65-36.176,80.65-80.65c0-44.45-36.179-80.638-80.65-80.638
				c-44.453,0-80.639,36.188-80.639,80.638C186.441,163.864,222.627,200.04,267.08,200.04z M267.08,49.575
				c38.49,0,69.836,31.303,69.836,69.814c0,38.509-31.352,69.83-69.836,69.83c-38.503,0-69.812-31.327-69.812-69.83
				C197.269,80.878,228.577,49.575,267.08,49.575z"/>

			<path d="M262.696,129.985c1.207,1.216,2.805,1.813,4.384,1.813c1.585,0,3.164-0.598,4.396-1.813l0,0l37.254-37.257
				c2.42-2.423,2.42-6.347,0-8.77c-2.433-2.423-6.341-2.423-8.768,0l-32.882,32.873l-32.87-32.873c-2.426-2.423-6.341-2.423-8.791,0
				c-2.42,2.423-2.42,6.347,0,8.77L262.696,129.985z"/>

</svg>
