<svg xmlns="http://www.w3.org/2000/svg" width="109.532" height="103.908" viewBox="0 0 109.532 103.908">
  <g id="Layer_19" data-name="Layer 19" transform="translate(-2.5 -4)" opacity="0.05">
    <path id="Path_9" data-name="Path 9" d="M100.6,59.323,111.94,16.1a2.8,2.8,0,0,0-.483-2.413,2.859,2.859,0,0,0-2.209-1.077H25.929l-1.1-6.256A2.785,2.785,0,0,0,22.086,4H5.285a2.785,2.785,0,0,0,0,5.569H19.747l1.1,6.219v.186l9.691,55.268a2.785,2.785,0,0,0,2.748,2.3H91.8a3.323,3.323,0,1,1,0,6.646H33.318a2.785,2.785,0,1,0,0,5.569H91.8c11.733-.371,11.77-17.414,0-17.785H35.657l-1.17-6.628H97.905A2.785,2.785,0,0,0,100.6,59.323Zm-67.075-3.49-6.609-37.65h78.734l-9.9,37.65Z" transform="translate(0 0)"/>
    <path id="Path_10" data-name="Path 10" d="M29.728,50.48c-11.64.371-11.64,17.247,0,17.618C41.424,67.727,41.424,50.833,29.728,50.48Zm0,12.049a3.24,3.24,0,1,1,0,.056Z" transform="translate(15.843 39.81)"/>
    <path id="Path_11" data-name="Path 11" d="M48.818,50.48c-11.64.371-11.64,17.247,0,17.618C60.476,67.727,60.476,50.833,48.818,50.48Zm0,12.049a3.24,3.24,0,1,1,0,.056Z" transform="translate(32.193 39.81)"/>
  </g>
</svg>
