<svg xmlns="http://www.w3.org/2000/svg" width="39.988" height="28.07" viewBox="0 0 39.988 28.07">
  <g id="_6885394131582988866" data-name="6885394131582988866" transform="translate(-3.268 -21.366)">
    <path id="Path_82" data-name="Path 82" d="M41.454,40.645H37.222l-.443-1.012L33.616,32.4a.722.722,0,0,0-.662-.434H23.51V43.538H3.268v6.507a.722.722,0,0,0,.723.723H6.934a5.061,5.061,0,1,0,10.018,0H29.571a5.061,5.061,0,1,0,10.018,0h2.943a.724.724,0,0,0,.724-.724v-7.6a1.8,1.8,0,0,0-1.8-1.8ZM11.943,54.654a3.164,3.164,0,0,1-3-4.165c.008-.018.016-.036.022-.054a3.181,3.181,0,0,1,1.639-1.81c.044-.021.088-.04.132-.059l.105-.042c.059-.022.12-.043.181-.062l.117-.033c.034-.009.068-.018.1-.025.069-.016.139-.03.21-.041s.162-.022.245-.029l.086-.005h0l.053,0,.107,0,.107,0,.053,0h0l.086.005q.123.01.245.029c.07.011.141.024.21.041.035.007.069.016.1.025l.1.029c.05.016.1.032.151.05s.1.037.148.057l.076.033.042.019c.042.019.085.04.126.062l.082.045c.036.02.073.041.108.062s.085.053.126.082a3.175,3.175,0,0,1,1.213,1.568.532.532,0,0,0,.024.056,3.166,3.166,0,0,1-3,4.162Zm22.637,0a3.164,3.164,0,0,1-3-4.165c.008-.018.016-.036.022-.054a3.181,3.181,0,0,1,1.638-1.81c.044-.021.088-.04.132-.059l.105-.042c.059-.022.12-.043.181-.062l.117-.033c.034-.009.068-.018.1-.025.069-.016.139-.03.21-.041s.162-.022.245-.029l.086-.005h0l.053,0,.107,0,.107,0,.053,0h0l.086.005q.123.01.245.029c.07.011.141.024.21.041.035.007.069.016.1.025l.1.029c.05.016.1.032.151.05s.1.037.148.057l.076.033.042.019c.042.019.085.04.126.062l.082.045c.036.02.073.041.108.062s.085.053.126.082a3.175,3.175,0,0,1,1.213,1.568.537.537,0,0,0,.024.056,3.166,3.166,0,0,1-3,4.162Z" transform="translate(0 -7.113)" fill="#fff"/>
    <rect id="Rectangle_73" data-name="Rectangle 73" width="18.107" height="12.817" rx="2.835" transform="translate(3.268 21.366)" fill="#fff"/>
  </g>
</svg>
