<svg xmlns="http://www.w3.org/2000/svg" width="79.974" height="68" viewBox="0 0 79.974 68">
  <g id="return-package" transform="translate(-5 -9)">
    <path id="Path_18" data-name="Path 18" d="M80.687,9H9.139A4.23,4.23,0,0,0,5,13.139v9.313a4.262,4.262,0,0,0,4.139,4.287h1.774V72.713A4.29,4.29,0,0,0,15.2,77H74.774a4.29,4.29,0,0,0,4.287-4.287V26.739h1.774A4.132,4.132,0,0,0,84.974,22.6V13.287A4.493,4.493,0,0,0,80.687,9Zm-4.73,63.713a1.325,1.325,0,0,1-1.33,1.33H15.2a1.325,1.325,0,0,1-1.33-1.33V26.739H75.956ZM81.869,22.6a1.166,1.166,0,0,1-1.183,1.183H9.139A1.272,1.272,0,0,1,7.957,22.6V13.287a1.3,1.3,0,0,1,1.183-1.33h71.4a1.166,1.166,0,0,1,1.183,1.183V22.6Z" transform="translate(0 0)" fill="#231f20"/>
    <path id="Path_19" data-name="Path 19" d="M21.33,37.128l10.2,6.5a3,3,0,0,0,2.957.148,3.243,3.243,0,0,0,1.626-2.661V39.2h6.5a4.5,4.5,0,0,1,4.287,4.73,4.591,4.591,0,0,1-4.287,4.73H34.043a4.593,4.593,0,0,0,0,9.165h8.574c7.1,0,13.009-6.209,13.009-13.748S49.861,30.328,42.617,30.328h-6.5V27.963A2.792,2.792,0,0,0,34.487,25.3a3.02,3.02,0,0,0-2.957.148l-10.2,6.5A2.9,2.9,0,0,0,20,34.467,3.161,3.161,0,0,0,21.33,37.128Zm1.626-2.661,10.052-6.5v3.4a1.4,1.4,0,0,0,1.478,1.478H42.47c5.47,0,10.052,4.878,10.052,10.791S48.087,54.572,42.47,54.572H33.9a1.659,1.659,0,0,1,0-3.252H42.47a7.455,7.455,0,0,0,7.243-7.687,7.455,7.455,0,0,0-7.243-7.687H34.487a1.4,1.4,0,0,0-1.478,1.478l.148,3.548-10.2-6.357Z" transform="translate(7.174 7.646)" fill="#231f20"/>
  </g>
</svg>
