<svg xmlns="http://www.w3.org/2000/svg" width="105.858" height="105.665" viewBox="0 0 105.858 105.665">
  <g id="icon-11" transform="translate(0.002)">
    <path id="Path_18435" data-name="Path 18435" d="M135.2,0c1.292,1.166,2.565,2.357,3.883,3.489q8.3,7.127,16.629,14.227c.252.215.483.453.854.8h-9.113V80.6H122.6V18.607h-9.309c.523-.471.824-.742,1.136-1.021q9.766-8.355,19.535-16.7a10.359,10.359,0,0,0,.817-.876Z" transform="translate(-82.063)" fill="#fff"/>
    <path id="Path_18436" data-name="Path 18436" d="M.005,333.649c.642-.7,1.314-1.37,1.923-2.094q6.563-7.817,13.092-15.664a2,2,0,0,1,1.73-.831c5.675.037,11.355.022,17.152.022-.167.371-.286.69-.434.987-2.788,5.627-5.59,11.247-8.344,16.885a1.392,1.392,0,0,1-1.485.921c-7.88-.03-15.76,0-23.641,0v-.208" transform="translate(0 -228.221)" fill="#fff"/>
    <path id="Path_18437" data-name="Path 18437" d="M294.911,333.843H271.245c-.564,0-1.006,0-1.329-.653-2.851-5.831-5.746-11.644-8.626-17.446-.089-.178-.152-.371-.278-.668h1.21c5.2,0,10.393.026,15.59-.022a2.6,2.6,0,0,1,2.26,1.043c4.67,5.649,9.384,11.258,14.1,16.878a7.383,7.383,0,0,0,.743.672Z" transform="translate(-189.063 -228.207)" fill="#fff"/>
    <path id="Path_18438" data-name="Path 18438" d="M114.73,333.764c2.892-5.842,5.753-11.547,8.537-17.3a2.153,2.153,0,0,1,2.309-1.436c7.16.063,14.324.045,21.484,0a1.392,1.392,0,0,1,1.485.913c2.758,5.646,5.568,11.265,8.352,16.9.134.271.252.553.416.917Z" transform="translate(-83.103 -228.2)" fill="#fff"/>
    <path id="Path_18439" data-name="Path 18439" d="M61.227,135.526c2.053,2.454,4,4.766,5.939,7.1a1.422,1.422,0,0,1,.267.846q0,17.524,0,35.047a1.256,1.256,0,0,1-.071.256H51.928V154.107H45.7l15.519-18.581" transform="translate(-33.108 -98.17)" fill="#fff"/>
    <path id="Path_18440" data-name="Path 18440" d="M265.691,135.513l15.475,18.53h-6.139v24.706H259.5V177.69q0-16.907.026-33.811a2.843,2.843,0,0,1,.6-1.641c1.782-2.227,3.634-4.395,5.568-6.73" transform="translate(-187.96 -98.164)" fill="#fff"/>
    <rect id="Rectangle_4406" data-name="Rectangle 4406" width="105.843" height="105.654" transform="translate(0.005)" fill="none"/>
  </g>
</svg>
