<svg xmlns="http://www.w3.org/2000/svg" width="26.258" height="27.594" viewBox="0 0 26.258 27.594">
  <g id="_15335374531580282645" data-name="15335374531580282645" transform="translate(-1.5 -0.5)">
    <path id="Path_10" data-name="Path 10" d="M26.945,27.67a.445.445,0,0,1-.445-.445v-1.78a.445.445,0,1,1,.89,0v1.78a.445.445,0,0,1-.445.445Z" transform="translate(-2.747 -2.692)" fill="#2fc99a"/>
    <rect id="Rectangle_28" data-name="Rectangle 28" width="18.692" height="24.923" rx="2" transform="translate(1.5 3.17)" fill="#2fc99a"/>
    <path id="Path_11" data-name="Path 11" d="M2.39,26.643V5.28A1.78,1.78,0,0,1,4.17,3.5H3.28A1.78,1.78,0,0,0,1.5,5.28V26.643a1.78,1.78,0,0,0,1.78,1.78h.89A1.78,1.78,0,0,1,2.39,26.643Z" transform="translate(0 -0.33)" fill="#2fc99a"/>
    <path id="Path_12" data-name="Path 12" d="M15.072,26.863H4.39a.89.89,0,0,1-.89-.89V6.39a.89.89,0,0,1,.89-.89H17.742a.89.89,0,0,1,.89.89V23.3" transform="translate(-0.22 -0.549)" fill="#2fc99a"/>
    <path id="Path_13" data-name="Path 13" d="M4.39,25.972V6.39a.89.89,0,0,1,.89-.89H4.39a.89.89,0,0,0-.89.89V25.972a.89.89,0,0,0,.89.89h.89A.89.89,0,0,1,4.39,25.972Z" transform="translate(-0.22 -0.549)" fill="#2fc99a"/>
    <path id="Path_14" data-name="Path 14" d="M13.731,3.17V2.852a2.313,2.313,0,0,0-2-2.341A2.226,2.226,0,0,0,9.28,2.725V3.17H8.39a.89.89,0,0,0-.89.89v1.78a.89.89,0,0,0,.89.89h6.231a.89.89,0,0,0,.89-.89V4.06a.89.89,0,0,0-.89-.89Z" transform="translate(-0.659 0)" fill="#2fc99a"/>
    <path id="Path_15" data-name="Path 15" d="M10.17,2.725A2.217,2.217,0,0,1,11.953.556a2.013,2.013,0,0,0-.218-.045A2.226,2.226,0,0,0,9.28,2.725V3.17h.89ZM8.39,5.841V4.06a.89.89,0,0,1,.89-.89H8.39a.89.89,0,0,0-.89.89v1.78a.89.89,0,0,0,.89.89h.89A.89.89,0,0,1,8.39,5.841Z" transform="translate(-0.659)" fill="#2fc99a"/>
    <circle id="Ellipse_4" data-name="Ellipse 4" cx="0.445" cy="0.445" r="0.445" transform="translate(10.401 2.725)" fill="#2fc99a"/>
    <path id="Path_16" data-name="Path 16" d="M16.5,29.06V26.39a.89.89,0,0,1,.89-.89h2.67Z" transform="translate(-1.648 -2.747)" fill="#2fc99a"/>
    <circle id="Ellipse_5" data-name="Ellipse 5" cx="1.335" cy="1.335" r="1.335" transform="translate(5.951 9.401)" fill="#2fc99a"/>
    <circle id="Ellipse_6" data-name="Ellipse 6" cx="1.335" cy="1.335" r="1.335" transform="translate(5.951 20.082)" fill="#2fc99a"/>
    <circle id="Ellipse_7" data-name="Ellipse 7" cx="1.335" cy="1.335" r="1.335" transform="translate(5.951 14.742)" fill="#2fc99a"/>
    <path id="Path_17" data-name="Path 17" d="M16.9,11.67H12.445a.445.445,0,0,1,0-.89H16.9a.445.445,0,1,1,0,.89Zm-2.67,1.78h-1.78a.445.445,0,0,1,0-.89h1.78a.445.445,0,0,1,0,.89Zm2.67,3.56H12.445a.445.445,0,0,1,0-.89H16.9a.445.445,0,1,1,0,.89Zm-2.67,1.78h-1.78a.445.445,0,0,1,0-.89h1.78a.445.445,0,0,1,0,.89Zm2.67,3.56H12.445a.445.445,0,0,1,0-.89H16.9a.445.445,0,1,1,0,.89Zm-2.67,1.78h-1.78a.445.445,0,0,1,0-.89h1.78a.445.445,0,0,1,0,.89Zm14.687-13.8V13.9a.445.445,0,0,1-.89,0v-3.56a.441.441,0,0,0-.445-.445h-.89a.445.445,0,0,1,0-.89h.89a1.333,1.333,0,0,1,1.335,1.335Z" transform="translate(-1.154 -0.934)" fill="#2fc99a"/>
    <path id="Path_18" data-name="Path 18" d="M28.17,6.39V22.706a1.752,1.752,0,0,1-.356,1.068l-.534.712-.445.6-.445-.6-.534-.712a1.752,1.752,0,0,1-.356-1.068V6.39a.893.893,0,0,1,.89-.89h.89A.893.893,0,0,1,28.17,6.39Z" transform="translate(-2.637 -0.549)" fill="#2fc99a"/>
    <path id="Path_19" data-name="Path 19" d="M26.39,22.706V6.39a.893.893,0,0,1,.89-.89h-.89a.893.893,0,0,0-.89.89V22.706a1.752,1.752,0,0,0,.356,1.068l.534.712.445.6.445-.6-.534-.712A1.752,1.752,0,0,1,26.39,22.706Z" transform="translate(-2.637 -0.549)" fill="#2fc99a"/>
    <rect id="Rectangle_29" data-name="Rectangle 29" width="0.89" height="0.89" transform="translate(25.533 8.066)" fill="#2fc99a"/>
    <path id="Path_20" data-name="Path 20" d="M28.17,23.5v1.184a1.752,1.752,0,0,1-.356,1.068l-.979,1.308-.979-1.308a1.752,1.752,0,0,1-.356-1.068V23.5Z" transform="translate(-2.637 -2.528)" fill="#2fc99a"/>
    <path id="Path_21" data-name="Path 21" d="M26.39,26.464l-.534-.712a1.752,1.752,0,0,1-.356-1.068V23.5h.89c0,.282-.006.566,0,.847s.027.556.034.835,0,.575-.014.863C26.4,26.185,26.395,26.324,26.39,26.464Z" transform="translate(-2.637 -2.528)" fill="#2fc99a"/>
    <path id="Path_22" data-name="Path 22" d="M28.17,6.39V8.615H25.5V6.39a.893.893,0,0,1,.89-.89h.89A.893.893,0,0,1,28.17,6.39Z" transform="translate(-2.637 -0.549)" fill="#2fc99a"/>
    <path id="Path_23" data-name="Path 23" d="M27.28,5.5h-.89a.893.893,0,0,0-.89.89V8.615h.89V6.39A.893.893,0,0,1,27.28,5.5Z" transform="translate(-2.637 -0.549)" fill="#2fc99a"/>
  </g>
</svg>
