<?xml version="1.0" encoding="iso-8859-1"?>
<!-- Generator: Adobe Illustrator 19.1.0, SVG Export Plug-In . SVG Version: 6.00 Build 0)  -->
<svg fill="#2fc99a" width="24px" height="24px" version="1.1" id="Capa_1" xmlns="http://www.w3.org/2000/svg" xmlns:xlink="http://www.w3.org/1999/xlink" x="0px" y="0px"
	 viewBox="0 0 489.204 489.204" style="enable-background:new 0 0 489.204 489.204;" xml:space="preserve">
		<path d="M310.5,249.502c3.4,4.4,10.1,4.4,13.5,0l55.4-70.4c4.4-5.6,0.4-13.9-6.8-13.9h-21.8v-101.4c0-3.1-2.5-5.6-5.6-5.6h-56
			c-3.1,0-5.6,2.5-5.6,5.6v101.4h-21.8c-7.2,0-11.2,8.3-6.8,13.9L310.5,249.502z"/>
		<path d="M473.9,324.602v-160.4c0-7.7-6.3-14-14-14h-25.2c-7.7,0-14,6.3-14,14v93.7c0,14.4-11.7,26.1-26.1,26.1H240
			c-14.4,0-26.1-11.7-26.1-26.1v-95.8c0-6.6-5.3-11.9-11.9-11.9h-25.9c-12.2,0-22.7,6.1-29.3,14.9c-0.6,0.6-1.1,1.7-1.7,2.2
			l-42.6,64.2l-48.2,4c-19.9,0-36,16.1-36,36v52.6c-10,1.1-18.3,10-18.3,20.5v26c0,11.1,8.9,20.5,20.5,20.5H46
			c6.6,22.7,27.7,39.9,53.1,39.9c25.5,0,46.5-16.6,53.1-39.9h114h67c6.6,22.7,27.7,39.9,53.1,39.9s46.5-16.6,53.1-39.9h29.3
			c11.1,0,20.5-8.9,20.5-20.5v-26C489.4,335.102,482.7,326.802,473.9,324.602z M99.1,403.202c-14.9,0-27.7-12.7-27.7-27.7
			s12.2-27.7,27.7-27.7c14.9,0,27.7,12.7,27.7,27.7S114.6,403.202,99.1,403.202z M386.4,403.202c-15.5,0-27.7-12.7-27.7-27.7
			s12.2-27.7,27.7-27.7c14.9,0,27.7,12.7,27.7,27.7S401.9,403.202,386.4,403.202z"/>
</svg>
