<?xml version="1.0" encoding="iso-8859-1"?>
<!-- Generator: Adobe Illustrator 19.0.0, SVG Export Plug-In . SVG Version: 6.00 Build 0)  -->
<svg version="1.1" id="Layer_1" xmlns="http://www.w3.org/2000/svg" xmlns:xlink="http://www.w3.org/1999/xlink" x="0px" y="0px"
	 viewBox="0 0 512.001 512.001" style="enable-background:new 0 0 512.001 512.001;" xml:space="preserve" width="24px" height="24px" fill="#2fc99a">
<path d="M292.161,512c0,0-36.48-71.2,33.68-120.4s89.76-76.64,89.76-76.64s39.28-10.96,22.48,21.92
	c-11.263,20.983-26.508,39.569-44.88,54.72c0,0,53.28-10.96,67.36-54.72s0-68.4,33.68-76.64c0,0,16.8,82.08-33.68,131.361
	c-50.48,49.28-109.441,68.4-112.24,120.4L292.161,512L292.161,512z"/>
<path d="M219.84,512c0,0,36.48-71.2-33.68-120.4S96.4,314.96,96.4,314.96s-39.28-10.96-22.48,21.84
	c11.29,20.965,26.531,39.546,44.88,54.72c0,0-53.28-10.959-67.36-54.72s0-68.4-33.68-76.64c0,0-16.8,82.08,33.68,131.361
	S160.88,460,163.68,512H219.84z"/>
<path style="fill:#2fc99a;" d="M255.28,0c-82.931,0-150.16,67.229-150.16,150.16s67.229,150.16,150.16,150.16
	s150.16-67.229,150.16-150.16l0,0C405.432,67.232,338.208,0.009,255.28,0z M266.56,222.88v24.64H251.6v-23.92
	c-12.812-0.025-25.364-3.626-36.24-10.4l5.68-15.92c10.181,6.583,22.037,10.11,34.16,10.16c16.8,0,28.24-9.68,28.24-23.2
	c0-13.04-9.28-21.12-26.799-28.24c-24.161-9.52-39.12-20.4-39.12-41.04c0-19.68,14-34.64,35.84-38.16V52.88h14.72v22.96
	c10.813,0.068,21.424,2.934,30.8,8.32l-5.92,15.68c-9.011-5.396-19.339-8.192-29.84-8.08c-18.24,0-25.12,10.88-25.12,20.4
	c0,12.32,8.8,18.48,29.36,27.04c24.4,10,36.72,22.32,36.72,43.36C304.08,201.28,291.04,218.8,266.56,222.88z"/>
</svg>
