<?xml version="1.0" encoding="iso-8859-1"?>
<!-- Generator: Adobe Illustrator 19.0.0, SVG Export Plug-In . SVG Version: 6.00 Build 0)  -->
<svg version="1.1" id="Layer_1" xmlns="http://www.w3.org/2000/svg" xmlns:xlink="http://www.w3.org/1999/xlink" x="0px" y="0px"
	 viewBox="0 0 380 380" style="enable-background:new 0 0 380 380;" xml:space="preserve" width="24px" height="24px" fill="#2fc99a">
<g id="XMLID_884_">
	<path id="XMLID_885_" d="M285.605,217.394c-5.857-5.857-15.355-5.857-21.213,0l-29.999,29.998c-5.858,5.858-5.858,15.355,0,21.213
		c5.857,5.857,15.355,5.858,21.213,0.001l19.393-19.392l19.395,19.394c2.929,2.929,6.767,4.393,10.606,4.393
		s7.678-1.464,10.606-4.394c5.858-5.858,5.858-15.355,0-21.213L285.605,217.394z"/>
	<path id="XMLID_886_" d="M290,146.077V55.001h25c8.284,0,15-6.716,15-15s-6.716-15-15-15h-40c-8.284,0-15,6.716-15,15v25H15
		c-5.024,0-9.715,2.516-12.495,6.701c-2.78,4.186-3.279,9.484-1.331,14.116l58.896,140c2.341,5.564,7.79,9.184,13.826,9.184h97.18
		c-0.704,4.9-1.076,9.906-1.076,14.998c0,5.093,0.372,10.1,1.076,15.002H46c-8.284,0-15,6.716-15,15s6.716,15,15,15h17.58
		c-1.665,4.695-2.58,9.742-2.58,15c0,24.812,20.187,44.998,45,44.998s45-20.186,45-44.998c0-5.258-0.915-10.305-2.58-15h31.726
		c16.883,35.442,53.053,59.998,94.854,59.998c28.047,0,54.415-10.922,74.247-30.754c19.832-19.832,30.754-46.199,30.753-74.244
		C380,197.196,340.816,153.378,290,146.077z M121,310.001c0,8.27-6.729,14.998-15,14.998s-15-6.728-15-14.998
		c0-8.271,6.729-15,15-15S121,301.73,121,310.001z M83.859,205.001l-46.275-110H260v51.076
		c-35.327,5.076-65.029,27.798-79.855,58.924H83.859z M328.033,303.032c-14.165,14.166-33,21.967-53.033,21.967
		c-41.354,0-74.999-33.645-75-74.999c0.001-41.354,33.645-74.998,75-74.998c41.355,0,75,33.645,75,75.001
		C350,270.033,342.199,288.867,328.033,303.032z"/>
</g>
</svg>
