<svg xmlns="http://www.w3.org/2000/svg" width="99.645" height="103.628" viewBox="0 0 99.645 103.628">
  <g id="Group_9" data-name="Group 9" transform="translate(-1024.5 -1377.021)">
    <path id="Path_18422" data-name="Path 18422" d="M236.467,14.751l20.366,21.412c-.518.04-.843.085-1.168.085-3.889,0-7.778.013-11.668,0a7.08,7.08,0,0,1-7.661-7.2c-.173-4.6-.043-9.206-.04-13.81a2.252,2.252,0,0,1,.171-.494" transform="translate(844.558 1365.783)" fill="#fff"/>
    <g id="Group_8" data-name="Group 8">
      <g id="Group_7" data-name="Group 7">
        <path id="Path_18420" data-name="Path 18420" d="M51.954,0V17.392A11.59,11.59,0,0,0,63.87,29.38c4.884.035,9.768,0,14.653,0h1.384V51.91c-1.35,0-2.686-.037-4.017,0a36.6,36.6,0,0,0-22.1,8.269,4.756,4.756,0,0,1-3.228,1.107c-10.534-.04-21.044-.021-31.567-.021h-.84c-1.974,0-3.07.8-3.073,2.211s1.094,2.214,3.068,2.217H48.078c-.32.5-.534.8-.728,1.139-1.446,2.5-2.934,4.983-4.3,7.525a1.456,1.456,0,0,1-1.507.952c-7.5-.032-15.01-.019-22.514-.019H17.964c-1.8,0-2.836.8-2.873,2.155s1.022,2.235,2.9,2.243H41.118a38.468,38.468,0,0,0,1.8,23.925H10.493a10.024,10.024,0,0,1-8.437-3.849A10.329,10.329,0,0,1,.012,93.192q0-16.9,0-33.829V10.523a9.87,9.87,0,0,1,5.567-9.5A21.18,21.18,0,0,1,8.591,0ZM31.222,51.939H44.314a5.6,5.6,0,0,0,1.3-.1,2.113,2.113,0,0,0,1.638-2.187,2.049,2.049,0,0,0-1.827-2.014A9.256,9.256,0,0,0,44,47.554H18.41a9.824,9.824,0,0,0-1.539.093,1.966,1.966,0,0,0-1.689,1.6c-.363,1.494.688,2.668,2.473,2.668,4.535.019,9.046,0,13.57,0" transform="translate(1024.507 1377.021)" fill="#fff"/>
        <path id="Path_18423" data-name="Path 18423" d="M229.78,337.587a54.582,54.582,0,0,1-11.788-10.6c2.038-2.025,3.945-4.1,6.039-5.962a35.08,35.08,0,0,1,13.506-7.968,21.215,21.215,0,0,1,15.117,1.411l-2.55,2.035c-.534-.267-1.4-.75-2.3-1.123a12.567,12.567,0,0,0-15.578,17.824c.512.867.534,1.4-.267,2.073a28.4,28.4,0,0,0-2.185,2.307" transform="translate(855.799 1133.832)" fill="#fff"/>
        <path id="Path_18424" data-name="Path 18424" d="M303.978,334.379l3.284-3.044a54.236,54.236,0,0,1,11.47,10.315c-5.709,6.341-11.809,12-20.3,14.229a20.681,20.681,0,0,1-14.292-1.622l2.214-2.225a12.689,12.689,0,0,0,17.624-17.654" transform="translate(805.413 1119.293)" fill="#fff"/>
      </g>
      <path id="Path_18425" data-name="Path 18425" d="M301.247,340.98l-10.971,11a7.891,7.891,0,0,1,1.251-9.406,8.083,8.083,0,0,1,9.72-1.6" transform="translate(801.534 1112.689)" fill="#fff"/>
      <path id="Path_18426" data-name="Path 18426" d="M307.5,369.55l10.979-10.982a7.685,7.685,0,0,1-.715,8.933A8.04,8.04,0,0,1,307.5,369.55" transform="translate(787.62 1098.548)" fill="#fff"/>
    </g>
    <path id="Path_18465" data-name="Path 18465" d="M93.276-512.018c-.267.109-.267.147-.267,1.392,0,1.086,0,1.134.085,1.238.163.205.155.205,1.918.229a7.978,7.978,0,0,1,2.753.267,3.272,3.272,0,0,1,1.454.891,2.117,2.117,0,0,1,.307.462c0,.021-1.4.037-3.121.037H93.276l-.139.139-.139.139v.926c0,1.011,0,1.043.243,1.166a23,23,0,0,0,3.3.061h3.185l-.024.117a2.886,2.886,0,0,1-.485.915,4.11,4.11,0,0,1-2.561,1.321,11.115,11.115,0,0,1-1.918.112c-1.55.029-1.542.024-1.675.251-.056.093-.064.267-.064,1.168a6.785,6.785,0,0,0,.045,1.136c.024.045.373.44.776.883,1.478,1.6,3.332,3.734,5.527,6.33a18.857,18.857,0,0,0,1.286,1.448c.053.021.784.037,1.635.037,1.7,0,1.713,0,1.833-.267.141-.3.211-.195-1.182-1.886-1.95-2.363-3.785-4.5-4.978-5.8a8.142,8.142,0,0,1-.608-.7,2.14,2.14,0,0,1,.315-.061,6.428,6.428,0,0,0,5.068-3.34,5.9,5.9,0,0,0,.464-1.387l.053-.291h1.291a5.44,5.44,0,0,0,1.408-.061c.235-.123.243-.155.243-1.16v-.923l-.1-.115-.117-.133-1.368-.021-1.368-.021-.112-.405a6.134,6.134,0,0,0-.643-1.422,2.02,2.02,0,0,1-.157-.267c0-.016.8-.029,1.8-.029h1.8l.125-.123c.155-.157.179-.339.163-1.267-.016-.643-.024-.72-.1-.827a.613.613,0,0,0-.181-.163C105.765-512.1,93.447-512.092,93.276-512.018Z" transform="translate(949.307 1903.753)" fill="#2fc99a"/>
  </g>
</svg>
