<?xml version="1.0" encoding="iso-8859-1"?>
<!-- Generator: Adobe Illustrator 19.0.0, SVG Export Plug-In . SVG Version: 6.00 Build 0)  -->
<svg fill="#2fc99a" width="24px" height="24px" version="1.1" id="Layer_1" xmlns="http://www.w3.org/2000/svg" xmlns:xlink="http://www.w3.org/1999/xlink" x="0px" y="0px"
	 viewBox="0 0 512 512" style="enable-background:new 0 0 512 512;" xml:space="preserve">
<g>
	<g>
		<path d="M490.667,469.333H55.851l64.405-128.789c2.56,0.32,5.099,0.789,7.744,0.789c7.829,0,15.232-1.621,22.165-4.181
			l24.64,24.853c-2.539,6.891-4.139,14.229-4.139,21.995c0,35.285,28.715,64,64,64s64-28.715,64-64
			c0-16.448-6.421-31.317-16.64-42.667l45.077-87.061c4.587,1.067,9.323,1.728,14.229,1.728c6.059,0,11.819-1.109,17.387-2.709
			l33.131,36.651C387.008,298.944,384,309.077,384,320c0,35.285,28.715,64,64,64c35.285,0,64-28.715,64-64s-28.715-64-64-64
			c-8.789,0-17.173,1.792-24.789,5.013l-29.419-32.533c7.232-10.368,11.541-22.912,11.541-36.48c0-35.285-28.715-64-64-64
			c-35.285,0-64,28.715-64,64c0,14.805,5.248,28.267,13.717,39.125l-46.549,89.877c-3.221-0.512-6.464-1.003-9.835-1.003
			c-11.883,0-22.869,3.456-32.405,9.131l-19.328-19.499c5.632-9.515,9.067-20.48,9.067-32.299c0-35.285-28.715-64-64-64
			s-64,28.715-64,64c0,17.216,6.912,32.789,18.005,44.309l-39.339,78.656V21.333C42.667,9.557,33.131,0,21.333,0
			C9.536,0,0,9.557,0,21.333v469.333c0,1.045,0.448,1.963,0.597,2.965c0.235,1.557,0.363,3.072,0.917,4.523
			c0.491,1.28,1.259,2.347,1.984,3.499c0.704,1.173,1.323,2.368,2.283,3.392c1.024,1.131,2.304,1.92,3.563,2.795
			c0.875,0.597,1.493,1.429,2.453,1.92c0.256,0.128,0.555,0.171,0.832,0.299c0.384,0.171,0.789,0.277,1.195,0.427
			c2.453,0.917,4.971,1.515,7.488,1.515h0.021h469.333c11.797,0,21.333-9.557,21.333-21.333S502.464,469.333,490.667,469.333z"/>
	</g>
</g>
</svg>
