<svg xmlns="http://www.w3.org/2000/svg" width="36.994" height="36.994" viewBox="0 0 36.994 36.994">
  <path id="_19326569461623565239" data-name="19326569461623565239" d="M43.911,16.165H36.2V13.083A3.083,3.083,0,0,0,33.121,10H23.873a3.083,3.083,0,0,0-3.083,3.083v3.083H13.083A3.091,3.091,0,0,0,10,19.248V43.911a3.092,3.092,0,0,0,3.083,3.083H43.911a3.092,3.092,0,0,0,3.083-3.083V19.248A3.092,3.092,0,0,0,43.911,16.165ZM23.873,13.083h9.248v3.083H23.873Zm20.038,6.165v3.083H13.083V19.248ZM40.828,43.911V31.58L39.287,28.5,37.745,31.58V43.911h-5.4v-5.7a5.366,5.366,0,0,0,0-9.712v4.856a2.311,2.311,0,1,1-4.621,0V28.5a5.366,5.366,0,0,0,0,9.712v5.7H20.787V37.745l1.541-3.083L20.787,28.5H17.706l-1.54,6.165,1.54,3.083v6.165H13.083v-18.5H43.911v18.5Z" transform="translate(-10 -10)" fill="#fff"/>
</svg>
