<?xml version="1.0" encoding="iso-8859-1"?>
<!-- Generator: Adobe Illustrator 16.0.0, SVG Export Plug-In . SVG Version: 6.00 Build 0)  -->
<!DOCTYPE svg PUBLIC "-//W3C//DTD SVG 1.1//EN" "http://www.w3.org/Graphics/SVG/1.1/DTD/svg11.dtd">
<svg version="1.1" id="Capa_1" xmlns="http://www.w3.org/2000/svg" xmlns:xlink="http://www.w3.org/1999/xlink" x="0px" y="0px"
	  fill="#2fc99a" width="24px" height="24px" viewBox="0 0 379.768 379.768" style="enable-background:new 0 0 379.768 379.768;"
	 xml:space="preserve">
<g>
	<path d="M297.331,247.235c-18.52,0-35.284,7.662-47.318,19.972l-104.012-60.72c1.705-5.867,2.669-12.04,2.669-18.453
		c0-6.112-0.897-12.009-2.447-17.63l103.225-58.48c12.07,12.667,29.058,20.6,47.895,20.6c36.533,0,66.263-29.718,66.263-66.27
		C363.605,29.718,333.876,0,297.343,0S231.08,29.718,231.08,66.254c0,6.113,0.895,12.01,2.456,17.643l-103.226,58.486
		c-12.07-12.67-29.061-20.603-47.895-20.603c-36.536,0-66.254,29.718-66.254,66.266c0,36.534,29.718,66.256,66.254,66.256
		c18.534,0,35.284-7.662,47.33-19.972l104,60.721c-1.699,5.873-2.672,12.058-2.672,18.459c0,36.545,29.729,66.257,66.257,66.257
		c36.539,0,66.269-29.712,66.269-66.257C363.6,276.959,333.87,247.235,297.331,247.235z"/>
</g>
</svg>
